<svg width="256" height="256" viewbox="0 0 16 16" xmlns="http://www.w3.org/2000/svg">
  <path d="M0 910 l0 -910 1280 0 1280 0 0 910 0 910 -1280 0 -1280 0 0 -910z
m820 676 c0 -14 -5 -28 -11 -32 -6 -3 -17 -22 -25 -40 -10 -23 -23 -36 -42
-40 -60 -13 -81 -28 -133 -97 -29 -40 -69 -89 -87 -110 -41 -47 -33 -64 9 -19
16 18 38 32 47 32 10 0 28 7 40 16 32 22 36 14 16 -37 -24 -65 -55 -89 -112
-89 -57 0 -71 -17 -79 -97 l-6 -54 45 30 c25 17 49 31 53 31 4 0 5 -25 3 -55
-4 -44 -11 -62 -33 -85 -16 -16 -36 -32 -45 -35 -25 -8 -35 -104 -16 -150 20
-47 27 -44 20 8 -5 37 -2 47 21 75 34 40 51 41 59 1 15 -78 1 -151 -34 -176
-18 -13 -18 -16 14 -83 43 -93 92 -155 60 -75 -6 14 36 65 53 65 16 0 44 -59
45 -95 1 -24 -5 -40 -18 -49 -21 -16 -18 -19 100 -119 41 -35 47 -37 41 -18
-5 15 -1 29 11 42 17 18 16 20 -5 43 -27 29 -29 50 -8 98 10 25 31 45 64 65
44 25 57 28 143 28 115 0 129 16 49 55 -102 49 -182 172 -193 294 -2 25 -14
48 -34 69 -63 66 -82 106 -82 168 0 83 30 155 87 211 80 77 163 104 294 95 66
-4 95 -13 181 -52 57 -26 115 -50 131 -52 30 -6 34 -15 13 -32 -21 -18 -119 5
-270 63 -81 31 -179 35 -228 10 -17 -9 -53 -37 -80 -61 -61 -58 -94 -147 -75
-210 15 -53 70 -134 75 -110 8 40 104 168 154 206 101 75 154 96 238 95 78 -2
168 -11 182 -20 4 -3 8 0 8 6 0 20 122 130 167 150 55 26 109 25 158 -3 126
-71 -40 -207 -205 -167 -30 7 -49 17 -47 24 4 10 24 11 118 6 39 -3 103 26
134 60 19 22 19 22 -5 40 -61 46 -121 30 -213 -58 -60 -58 -66 -68 -51 -77 55
-32 173 -137 210 -187 60 -82 84 -153 86 -252 2 -154 -81 -323 -204 -412 -84
-60 -133 -77 -223 -78 -98 -1 -157 19 -233 81 -29 23 -56 43 -60 43 -4 0 -24
-20 -44 -44 -45 -53 -91 -76 -155 -76 l-49 0 1 -48 c1 -47 1 -47 53 -71 29
-14 52 -30 52 -37 0 -18 -37 -37 -45 -24 -3 5 -49 39 -102 75 -87 60 -97 64
-113 50 -21 -19 -72 -19 -108 -1 -22 12 -72 66 -72 79 0 9 103 -3 116 -14 8
-6 17 -9 21 -6 3 4 -14 28 -39 55 -24 26 -53 60 -62 75 -21 30 -38 34 -56 12
-19 -23 -55 -18 -88 13 -46 44 -59 147 -15 122 37 -20 93 -39 93 -30 0 5 -16
45 -36 89 l-37 80 -39 -2 c-57 -2 -93 37 -93 102 0 27 3 52 6 55 14 14 70 -32
94 -76 15 -27 28 -48 31 -48 2 0 4 58 4 128 l0 129 -35 35 c-50 49 -56 93 -21
153 15 25 29 45 31 45 9 0 33 -56 39 -94 l8 -40 19 43 c10 23 28 56 40 72 19
27 20 32 6 47 -9 9 -23 38 -32 64 -14 43 -14 51 0 85 16 39 52 83 67 83 4 0 8
-8 8 -18 0 -10 5 -23 12 -30 16 -16 12 -105 -7 -144 l-16 -33 33 37 c97 106
113 131 113 172 0 38 2 41 45 58 25 9 57 17 73 17 22 1 27 -3 27 -23z m965 5
c49 -22 95 -74 95 -106 0 -25 86 -145 110 -153 11 -4 10 1 -3 22 -10 15 -21
49 -24 76 -5 43 -2 54 21 85 30 39 41 43 50 18 3 -10 13 -29 22 -43 22 -37 15
-141 -13 -178 -21 -28 -21 -30 -4 -58 10 -16 22 -43 28 -59 l10 -30 7 40 c4
22 18 53 31 69 l23 29 26 -51 c14 -28 26 -66 26 -84 0 -39 -23 -86 -50 -105
-18 -13 -20 -26 -20 -134 l0 -120 34 35 c19 21 43 36 56 36 13 0 32 7 42 17
26 23 24 1 -6 -62 -32 -69 -57 -89 -99 -82 -33 5 -35 3 -46 -33 -6 -21 -25
-64 -40 -94 l-30 -55 37 19 c20 11 44 20 54 20 9 0 20 5 23 10 11 18 25 0 25
-32 0 -22 -10 -40 -36 -64 -45 -43 -74 -50 -116 -30 -26 13 -34 14 -37 4 -2
-7 -33 -43 -69 -81 -64 -66 -77 -93 -30 -64 29 19 108 32 108 19 0 -5 -18 -32
-41 -61 -46 -58 -76 -65 -113 -28 l-23 23 -73 -43 c-41 -23 -91 -59 -111 -79
l-38 -37 -11 27 c-15 41 -14 43 34 55 24 6 54 20 67 31 22 18 23 21 7 30 -25
15 -24 72 2 88 11 7 20 19 20 26 0 8 4 18 10 21 10 6 40 -57 40 -86 0 -11 3
-19 7 -19 13 0 73 52 98 84 l25 34 -35 35 c-19 19 -35 42 -35 50 0 8 15 34 34
56 l35 42 26 -46 c20 -33 25 -52 20 -72 l-7 -28 20 25 c10 14 33 49 50 79 l31
54 -24 19 c-30 24 -48 79 -42 126 10 65 19 102 26 102 12 0 49 -65 61 -107 10
-31 10 -49 1 -75 -10 -30 -9 -31 4 -13 22 27 35 82 35 142 0 55 -17 83 -50 83
-10 0 -34 18 -52 39 -24 30 -35 55 -43 103 l-10 65 45 -27 c50 -29 90 -81 90
-116 0 -13 5 -24 10 -24 18 0 8 71 -27 183 -15 47 -26 57 -39 36 -8 -14 -59
-4 -91 16 -23 15 -44 50 -57 93 -6 18 -4 22 15 22 23 0 129 -74 129 -90 0 -6
5 -10 10 -10 21 0 8 24 -72 130 -67 89 -88 110 -108 110 -47 0 -141 117 -126
157 7 17 23 16 71 -6z"/>
</svg>
