<?xml version="1.0" encoding="UTF-8" standalone="no"?>
<!DOCTYPE svg PUBLIC "-//W3C//DTD SVG 1.1//EN" "http://www.w3.org/Graphics/SVG/1.1/DTD/svg11.dtd">
<svg version="1.1" xmlns="http://www.w3.org/2000/svg" xmlns:xlink="http://www.w3.org/1999/xlink" preserveAspectRatio="xMidYMid meet" viewBox="0 0 640 640" width="640" height="640"><defs><path d="M-83.25 640L-83.25 0L731.25 0L731.25 640L-83.25 640ZM466.6 74.35L466.18 74.42L465.79 74.51L465.41 74.63L465.06 74.77L464.72 74.94L464.4 75.14L464.1 75.36L463.82 75.6L463.55 75.87L463.3 76.16L463.07 76.47L462.84 76.82L462.64 77.18L462.44 77.57L462.26 77.98L462.08 78.42L461.79 79.52L461.62 80.72L461.57 82.01L461.64 83.38L461.82 84.83L462.11 86.34L462.5 87.92L462.98 89.56L463.56 91.25L464.23 92.98L464.98 94.75L465.81 96.55L466.72 98.37L467.69 100.21L468.73 102.07L469.83 103.93L470.98 105.79L472.19 107.64L473.44 109.48L474.73 111.3L476.06 113.09L477.42 114.85L478.81 116.57L480.23 118.24L481.66 119.87L483.1 121.43L484.56 122.93L486.02 124.36L487.47 125.71L488.93 126.98L490.37 128.15L491.8 129.23L493.21 130.21L494.6 131.08L495.96 131.83L497.29 132.46L498.58 132.96L499.82 133.33L501.02 133.55L502.17 133.63L502.65 133.64L503.13 133.68L503.62 133.76L504.1 133.86L504.6 134L505.11 134.18L505.62 134.39L506.14 134.64L506.68 134.94L507.23 135.27L507.79 135.65L508.37 136.07L508.97 136.53L509.58 137.05L510.22 137.61L510.88 138.23L511.56 138.9L512.26 139.62L512.99 140.4L513.75 141.23L514.53 142.12L515.34 143.08L516.19 144.09L517.06 145.17L517.97 146.32L518.92 147.53L519.9 148.8L520.91 150.15L521.97 151.57L523.07 153.06L524.2 154.63L525.39 156.27L526.61 157.99L527.88 159.78L529.2 161.66L530.56 163.62L531.98 165.66L533.44 167.79L534.96 170.01L536.53 172.31L538.4 175.05L540.19 177.69L541.91 180.22L543.54 182.65L545.1 184.97L546.58 187.2L547.99 189.34L549.33 191.38L550.6 193.32L551.79 195.18L552.91 196.94L553.97 198.62L554.96 200.21L555.88 201.72L556.73 203.15L557.52 204.5L558.24 205.77L558.9 206.97L559.5 208.09L560.04 209.14L560.52 210.12L560.93 211.04L561.29 211.88L561.59 212.67L561.84 213.39L562.03 214.05L562.17 214.65L562.25 215.19L562.28 215.68L562.26 216.12L562.19 216.51L562.07 216.85L561.9 217.14L561.68 217.38L561.42 217.59L561.11 217.75L560.76 217.87L560.36 217.96L559.92 218.01L559.44 218.02L559.32 218.02L559.2 218.01L559.08 218L558.97 217.98L558.85 217.96L558.73 217.93L558.61 217.9L558.5 217.86L558.39 217.82L558.27 217.77L558.16 217.72L558.05 217.66L557.94 217.6L557.84 217.54L557.74 217.47L557.63 217.39L557.54 217.31L557.44 217.23L557.34 217.15L557.25 217.05L557.17 216.96L557.08 216.86L557 216.76L556.92 216.65L556.85 216.55L556.78 216.43L556.71 216.32L556.65 216.2L556.59 216.07L556.53 215.95L556.48 215.81L556.44 215.68L556.4 215.54L556.36 215.41L556.33 215.26L556.31 215.12L556.29 214.97L556.27 214.82L556.26 214.66L556.26 214.51L556.2 214.05L556.01 213.51L555.72 212.91L555.31 212.25L554.8 211.53L554.19 210.75L553.48 209.93L552.69 209.05L551.82 208.14L550.88 207.19L549.86 206.2L548.78 205.19L547.64 204.15L546.44 203.09L545.2 202.02L543.92 200.93L542.6 199.84L541.25 198.75L539.88 197.66L538.48 196.57L537.07 195.5L535.66 194.44L534.24 193.39L532.83 192.38L531.42 191.39L530.03 190.43L528.66 189.51L527.31 188.63L525.99 187.8L524.72 187.01L523.48 186.28L522.3 185.61L521.16 185L520.09 184.46L519.08 183.99L518.14 183.59L517.28 183.28L516.5 183.05L515.81 182.91L515.22 182.86L514.77 182.86L514.35 182.87L513.95 182.88L513.56 182.9L513.2 182.93L512.85 182.96L512.52 183.01L512.22 183.05L511.92 183.11L511.65 183.18L511.4 183.25L511.16 183.33L510.94 183.42L510.73 183.52L510.55 183.64L510.38 183.76L510.22 183.89L510.08 184.03L509.96 184.19L509.85 184.35L509.75 184.53L509.67 184.72L509.61 184.92L509.56 185.14L509.52 185.36L509.5 185.61L509.49 185.86L509.49 186.13L509.51 186.42L509.53 186.71L509.57 187.03L509.63 187.36L509.69 187.7L509.77 188.07L509.85 188.44L509.95 188.84L510.06 189.25L510.18 189.68L510.31 190.13L510.44 190.59L510.76 191.72L511.08 192.84L511.42 193.95L511.76 195.04L512.11 196.12L512.47 197.19L512.84 198.25L513.22 199.29L513.6 200.32L513.99 201.34L514.39 202.34L514.8 203.33L515.22 204.3L515.64 205.26L516.07 206.2L516.51 207.12L516.95 208.02L517.4 208.91L517.86 209.78L518.32 210.64L518.79 211.47L519.26 212.29L519.74 213.08L520.23 213.86L520.72 214.62L521.21 215.35L521.71 216.07L522.22 216.76L522.73 217.44L523.24 218.09L523.76 218.72L524.28 219.32L524.81 219.9L525.34 220.46L525.87 221L526.41 221.51L526.94 221.99L527.49 222.45L528.03 222.89L528.58 223.3L529.35 223.82L530.15 224.32L530.96 224.82L531.8 225.3L532.64 225.76L533.5 226.21L534.37 226.64L535.26 227.06L536.15 227.45L537.04 227.84L537.94 228.2L538.84 228.54L539.74 228.87L540.65 229.18L541.54 229.47L542.44 229.73L543.32 229.98L544.2 230.21L545.07 230.41L545.92 230.59L546.76 230.75L547.58 230.89L548.39 231L549.17 231.09L549.94 231.16L550.68 231.2L551.39 231.22L552.08 231.21L552.74 231.17L553.37 231.11L553.96 231.02L554.52 230.9L555.04 230.76L555.53 230.59L555.98 230.38L556.38 230.15L556.74 229.89L557.05 229.6L557.32 229.28L557.53 228.92L557.84 228.39L558.15 227.9L558.45 227.45L558.76 227.04L559.06 226.67L559.36 226.34L559.66 226.06L559.95 225.82L560.25 225.62L560.55 225.46L560.84 225.35L561.13 225.28L561.43 225.25L561.72 225.27L562.02 225.33L562.31 225.43L562.61 225.58L562.9 225.77L563.2 226L563.5 226.29L563.8 226.61L564.1 226.98L564.4 227.4L564.7 227.86L565.01 228.37L565.32 228.92L565.63 229.52L565.94 230.16L566.25 230.86L566.57 231.59L566.89 232.38L567.21 233.21L567.54 234.09L567.87 235.02L568.21 235.99L568.55 237.01L568.89 238.08L569.23 239.2L569.59 240.37L569.94 241.58L570.76 244.51L571.55 247.38L572.31 250.2L573.04 252.95L573.74 255.66L574.41 258.3L575.05 260.88L575.66 263.4L576.24 265.86L576.79 268.25L577.3 270.58L577.79 272.85L578.24 275.05L578.67 277.19L579.06 279.25L579.42 281.25L579.76 283.18L580.05 285.03L580.32 286.82L580.56 288.53L580.76 290.17L580.94 291.73L581.08 293.21L581.19 294.63L581.27 295.96L581.31 297.21L581.32 298.38L581.31 299.48L581.25 300.49L581.17 301.42L581.05 302.26L580.91 303.02L580.72 303.7L580.51 304.28L580.26 304.78L579.98 305.2L579.67 305.52L579.32 305.75L578.94 305.89L578.53 305.93L578.41 305.93L578.29 305.91L578.17 305.87L578.06 305.82L577.94 305.76L577.82 305.68L577.7 305.6L577.59 305.5L577.48 305.38L577.36 305.26L577.25 305.12L577.14 304.98L577.03 304.82L576.93 304.65L576.83 304.47L576.72 304.28L576.63 304.08L576.53 303.87L576.43 303.66L576.34 303.43L576.26 303.19L576.17 302.95L576.09 302.7L576.01 302.44L575.94 302.17L575.87 301.9L575.8 301.62L575.74 301.33L575.68 301.04L575.62 300.74L575.57 300.44L575.53 300.13L575.49 299.81L575.45 299.49L575.42 299.17L575.4 298.84L575.38 298.51L575.36 298.17L575.35 297.84L575.35 297.49L575.33 296.56L575.26 295.61L575.14 294.63L574.98 293.64L574.77 292.63L574.52 291.6L574.23 290.56L573.9 289.51L573.53 288.44L573.11 287.36L572.66 286.28L572.17 285.18L571.64 284.08L571.08 282.98L570.48 281.87L569.85 280.76L569.19 279.64L568.49 278.53L567.76 277.42L567 276.31L566.21 275.2L565.39 274.1L564.54 273.01L563.67 271.92L562.77 270.85L561.84 269.78L560.89 268.73L559.92 267.69L558.92 266.66L557.9 265.65L556.86 264.65L555.8 263.68L554.72 262.72L553.63 261.79L552.51 260.88L551.38 259.99L550.24 259.13L549.08 258.29L547.9 257.48L546.71 256.7L532.4 247.21L533.44 254.71L535.58 270.07L535.77 271.32L535.97 272.54L536.17 273.73L536.37 274.9L536.58 276.04L536.8 277.15L537.02 278.24L537.25 279.3L537.48 280.34L537.72 281.36L537.96 282.36L538.21 283.34L538.47 284.3L538.74 285.24L539.01 286.16L539.3 287.07L539.59 287.96L539.89 288.84L540.19 289.7L540.51 290.55L540.84 291.39L541.17 292.21L541.52 293.03L541.88 293.84L542.25 294.64L542.63 295.43L543.02 296.22L543.42 297L543.83 297.78L544.26 298.55L544.7 299.32L545.15 300.09L545.61 300.86L546.09 301.62L546.58 302.39L547.09 303.16L547.61 303.94L548.15 304.72L548.7 305.5L549.26 306.29L549.69 306.84L550.13 307.38L550.58 307.93L551.03 308.46L551.48 309L551.94 309.52L552.41 310.04L552.87 310.55L553.34 311.05L553.81 311.54L554.29 312.03L554.76 312.5L555.23 312.97L555.7 313.43L556.17 313.87L556.64 314.3L557.11 314.72L557.57 315.13L558.03 315.53L558.49 315.91L558.94 316.28L559.38 316.64L559.82 316.98L560.26 317.3L560.68 317.61L561.1 317.9L561.51 318.18L561.91 318.43L562.3 318.67L562.68 318.9L563.05 319.1L563.41 319.28L563.76 319.45L564.09 319.59L564.42 319.71L564.72 319.82L565.02 319.9L565.29 319.95L565.56 319.99L565.8 320L566.58 320.02L567.34 320.07L568.08 320.17L568.8 320.3L569.5 320.46L570.18 320.66L570.85 320.9L571.49 321.18L572.12 321.49L572.72 321.84L573.31 322.23L573.87 322.65L574.42 323.11L574.94 323.6L575.45 324.14L575.94 324.7L576.41 325.31L576.86 325.95L577.29 326.63L577.7 327.34L578.09 328.09L578.46 328.88L578.81 329.7L579.14 330.56L579.45 331.45L579.74 332.38L580.01 333.35L580.26 334.35L580.49 335.39L580.7 336.47L580.9 337.58L581.07 338.72L581.22 339.91L581.35 341.13L581.46 342.38L581.55 343.67L581.62 345L581.67 346.36L581.7 347.75L581.71 349.19L581.71 350.77L581.68 352.34L581.64 353.9L581.59 355.46L581.52 357L581.44 358.54L581.34 360.06L581.23 361.57L581.1 363.07L580.96 364.55L580.8 366.03L580.63 367.48L580.45 368.92L580.25 370.35L580.04 371.75L579.81 373.14L579.57 374.51L579.32 375.87L579.05 377.2L578.77 378.51L578.48 379.79L578.17 381.06L577.85 382.3L577.52 383.52L577.18 384.71L576.82 385.88L576.45 387.02L576.07 388.14L575.68 389.22L575.27 390.28L574.85 391.31L574.42 392.31L573.98 393.27L573.53 394.21L573.07 395.11L572.59 395.99L572.1 396.82L571.61 397.62L571.1 398.39L570.58 399.12L570.27 399.58L569.99 400.02L569.71 400.43L569.45 400.82L569.2 401.17L568.97 401.51L568.75 401.81L568.55 402.09L568.36 402.34L568.19 402.56L568.02 402.75L567.88 402.92L567.74 403.05L567.62 403.16L567.52 403.24L567.43 403.28L567.35 403.3L567.28 403.29L567.23 403.24L567.2 403.16L567.17 403.06L567.16 402.92L567.17 402.74L567.19 402.54L567.22 402.3L567.26 402.03L567.32 401.72L567.39 401.39L567.48 401.01L567.58 400.6L567.69 400.16L567.82 399.68L567.96 399.17L568.11 398.62L568.28 398.03L568.46 397.41L568.65 396.75L568.85 396.06L569.07 395.32L569.3 394.55L569.51 393.87L569.71 393.2L569.9 392.54L570.08 391.88L570.24 391.24L570.4 390.6L570.54 389.97L570.68 389.34L570.8 388.72L570.91 388.1L571.01 387.49L571.1 386.88L571.18 386.27L571.25 385.67L571.3 385.06L571.35 384.46L571.38 383.85L571.4 383.24L571.41 382.63L571.41 382.02L571.4 381.41L571.38 380.79L571.34 380.16L571.3 379.54L571.24 378.9L571.17 378.26L571.09 377.61L571 376.95L570.9 376.29L570.78 375.61L570.65 374.92L570.52 374.23L570.37 373.52L570.2 372.8L570.03 372.06L569.85 371.32L569.65 370.55L569.44 369.78L569.22 368.98L568.99 368.18L568.69 367.05L568.36 365.9L568 364.73L567.62 363.53L567.21 362.32L566.79 361.09L566.34 359.84L565.87 358.59L565.38 357.33L564.88 356.07L564.36 354.8L563.83 353.54L563.29 352.28L562.74 351.02L562.17 349.78L561.6 348.55L561.03 347.34L560.45 346.14L559.87 344.97L559.28 343.82L558.7 342.7L558.12 341.62L557.54 340.56L556.96 339.54L556.39 338.56L555.83 337.62L555.28 336.73L554.73 335.89L554.2 335.09L553.68 334.35L553.18 333.67L552.7 333.04L552.23 332.48L551.78 331.99L551.35 331.56L550.95 331.2L550.56 330.92L550.21 330.72L549.88 330.59L549.58 330.55L549.41 330.57L549.24 330.65L549.07 330.77L548.89 330.94L548.71 331.15L548.53 331.42L548.35 331.73L548.17 332.09L547.98 332.49L547.79 332.94L547.6 333.44L547.41 333.98L547.22 334.56L547.02 335.2L546.82 335.87L546.62 336.59L546.42 337.36L546.21 338.17L546.01 339.02L545.8 339.91L545.59 340.85L545.38 341.83L545.17 342.85L544.95 343.92L544.73 345.02L544.52 346.17L544.3 347.36L544.08 348.59L543.85 349.86L543.63 351.17L543.4 352.52L543.17 353.91L542.95 355.34L542.72 356.81L542.48 358.31L542.25 359.86L542.02 361.44L541.78 363.06L541.54 364.72L541.31 366.42L541.18 367.66L541.08 368.92L541 370.18L540.96 371.45L540.94 372.72L540.95 374L540.98 375.28L541.05 376.56L541.13 377.84L541.25 379.13L541.38 380.41L541.55 381.68L541.73 382.95L541.94 384.22L542.18 385.47L542.44 386.72L542.72 387.96L543.02 389.19L543.35 390.4L543.69 391.6L544.06 392.79L544.45 393.96L544.86 395.11L545.29 396.24L545.74 397.36L546.21 398.45L546.7 399.51L547.21 400.56L547.74 401.57L548.29 402.57L548.85 403.53L549.43 404.46L550.03 405.37L550.64 406.24L551.28 407.08L551.92 407.88L552.59 408.65L553.27 409.38L553.96 410.07L554.67 410.73L562.3 417.41L552.44 436.4L552.03 437.19L551.62 437.99L551.2 438.8L550.77 439.6L550.34 440.42L549.9 441.23L549.46 442.05L549.02 442.86L548.57 443.68L548.12 444.49L547.67 445.31L547.22 446.12L546.77 446.92L546.32 447.73L545.87 448.52L545.42 449.31L544.98 450.1L544.53 450.87L544.09 451.64L543.65 452.4L543.22 453.14L542.79 453.88L542.37 454.6L541.95 455.31L541.54 456L541.14 456.68L540.74 457.35L540.35 458L539.97 458.63L539.6 459.24L539.24 459.84L538.89 460.41L538.55 460.96L538.22 461.49L537.91 462L537.61 462.49L537.32 462.95L537.04 463.38L536.78 463.79L536.53 464.18L530.17 472.97L532.4 463.12L532.51 462.59L532.61 462.07L532.7 461.54L532.78 461.02L532.84 460.49L532.89 459.96L532.93 459.43L532.96 458.9L532.97 458.37L532.97 457.83L532.95 457.29L532.93 456.74L532.89 456.19L532.83 455.64L532.76 455.08L532.68 454.51L532.58 453.94L532.47 453.36L532.34 452.77L532.2 452.18L532.04 451.57L531.87 450.96L531.68 450.34L531.48 449.7L531.26 449.06L531.03 448.4L530.78 447.74L530.52 447.06L530.23 446.37L529.94 445.66L529.62 444.95L529.29 444.22L528.94 443.47L528.58 442.71L528.2 441.93L527.8 441.14L527.39 440.33L526.95 439.51L526.5 438.66L526.03 437.8L517.76 421.63L506.63 436.4L506.18 436.98L505.73 437.57L505.29 438.16L504.85 438.75L504.43 439.35L504 439.95L503.59 440.54L503.18 441.14L502.78 441.74L502.39 442.34L502 442.94L501.62 443.53L501.26 444.12L500.9 444.7L500.55 445.28L500.21 445.86L499.88 446.43L499.56 446.99L499.25 447.54L498.95 448.09L498.66 448.62L498.39 449.15L498.13 449.67L497.88 450.17L497.64 450.66L497.41 451.14L497.2 451.6L497 452.06L496.82 452.49L496.65 452.91L496.49 453.32L496.35 453.7L496.23 454.07L496.12 454.42L496.03 454.75L495.95 455.06L495.89 455.35L495.84 455.62L495.82 455.87L495.81 456.09L495.82 456.31L495.85 456.55L495.89 456.81L495.96 457.08L496.04 457.38L496.14 457.69L496.25 458.01L496.39 458.36L496.53 458.71L496.7 459.08L496.88 459.47L497.07 459.86L497.28 460.27L497.5 460.69L497.74 461.13L497.99 461.57L498.25 462.02L498.52 462.48L498.81 462.95L499.11 463.43L499.42 463.91L499.74 464.4L500.07 464.9L500.41 465.41L500.76 465.91L501.13 466.42L501.49 466.94L501.87 467.46L502.26 467.98L502.65 468.5L503.06 469.02L503.46 469.55L503.88 470.07L504.3 470.59L504.73 471.11L505.16 471.63L505.6 472.15L506.05 472.66L506.49 473.17L506.94 473.67L518.08 485.98L510.13 497.93L509.51 498.79L508.85 499.67L508.16 500.57L507.43 501.5L506.67 502.43L505.88 503.39L505.07 504.35L504.23 505.33L503.36 506.31L502.48 507.3L501.58 508.29L500.67 509.28L499.74 510.26L498.8 511.25L497.86 512.23L496.91 513.19L495.95 514.15L495 515.09L494.05 516.02L493.1 516.92L492.17 517.81L491.24 518.67L490.32 519.51L489.42 520.32L488.53 521.09L487.67 521.84L486.82 522.55L486 523.22L485.21 523.85L484.44 524.44L483.71 524.98L483.01 525.48L482.35 525.93L481.73 526.32L481.15 526.66L480.61 526.95L480.12 527.17L479.68 527.34L479.28 527.44L478.95 527.47L478.85 527.47L478.76 527.45L478.67 527.43L478.57 527.39L478.48 527.34L478.4 527.29L478.31 527.22L478.23 527.15L478.14 527.07L478.06 526.97L477.98 526.87L477.9 526.76L477.83 526.64L477.75 526.51L477.68 526.38L477.61 526.23L477.54 526.08L477.48 525.92L477.42 525.76L477.36 525.58L477.3 525.4L477.24 525.21L477.19 525.02L477.14 524.81L477.09 524.61L477.04 524.39L477 524.17L476.96 523.94L476.92 523.71L476.89 523.47L476.86 523.22L476.83 522.97L476.8 522.72L476.78 522.45L476.76 522.19L476.75 521.92L476.73 521.64L476.73 521.36L476.72 521.08L476.72 520.79L476.7 520L476.65 519.18L476.56 518.31L476.45 517.41L476.3 516.48L476.13 515.52L475.93 514.53L475.7 513.53L475.45 512.5L475.18 511.47L474.88 510.42L474.57 509.36L474.24 508.3L473.89 507.24L473.53 506.18L473.16 505.13L472.77 504.09L472.37 503.06L471.96 502.05L471.55 501.05L471.13 500.08L470.7 499.14L470.28 498.23L469.85 497.35L469.42 496.5L468.99 495.7L468.56 494.94L468.14 494.22L467.73 493.56L467.32 492.95L466.93 492.4L466.54 491.91L466.16 491.48L465.8 491.12L465.45 490.82L465.12 490.61L464.81 490.47L464.52 490.41L464.24 490.44L463.99 490.55L463.85 490.63L463.71 490.73L463.57 490.83L463.44 490.94L463.31 491.05L463.18 491.18L463.05 491.31L462.93 491.45L462.81 491.6L462.69 491.75L462.57 491.91L462.46 492.08L462.35 492.25L462.25 492.43L462.15 492.61L462.05 492.79L461.95 492.99L461.86 493.18L461.77 493.38L461.69 493.58L461.6 493.79L461.53 494L461.45 494.21L461.38 494.42L461.31 494.64L461.25 494.86L461.19 495.08L461.14 495.3L461.09 495.52L461.04 495.74L461 495.96L460.96 496.19L460.92 496.41L460.89 496.63L460.87 496.85L460.85 497.07L460.83 497.29L460.82 497.51L460.81 497.72L460.81 497.93L460.81 498.12L460.79 498.32L460.76 498.52L460.73 498.72L460.68 498.93L460.62 499.15L460.56 499.37L460.48 499.59L460.4 499.82L460.31 500.05L460.21 500.29L460.1 500.53L459.98 500.77L459.85 501.01L459.72 501.26L459.58 501.51L459.43 501.76L459.27 502L459.11 502.26L458.94 502.51L458.77 502.76L458.58 503.01L458.39 503.26L458.2 503.5L458 503.75L457.79 504L457.58 504.24L457.37 504.48L457.14 504.72L456.92 504.96L456.69 505.19L456.45 505.42L456.21 505.64L455.97 505.86L455.73 506.08L455.48 506.29L455.22 506.49L454.97 506.69L454.71 506.89L454.45 507.08L453.84 507.53L453.27 508.03L452.72 508.57L452.2 509.17L451.72 509.81L451.26 510.48L450.84 511.2L450.44 511.95L450.08 512.73L449.74 513.54L449.43 514.38L449.16 515.25L448.91 516.13L448.7 517.03L448.51 517.95L448.36 518.88L448.23 519.82L448.14 520.77L448.08 521.73L448.04 522.68L448.04 523.64L448.07 524.59L448.13 525.53L448.22 526.47L448.34 527.4L448.49 528.31L448.67 529.2L448.88 530.08L449.12 530.93L449.39 531.75L449.69 532.55L450.03 533.32L450.39 534.05L450.79 534.75L451.22 535.41L451.67 536.03L452.16 536.6L452.68 537.12L453.23 537.6L453.81 538.02L454.18 538.26L454.53 538.48L454.86 538.7L455.17 538.92L455.46 539.12L455.73 539.33L455.98 539.53L456.21 539.73L456.41 539.92L456.59 540.12L456.76 540.31L456.9 540.5L457.02 540.69L457.11 540.89L457.19 541.08L457.24 541.28L457.27 541.48L457.28 541.69L457.27 541.9L457.23 542.11L457.17 542.33L457.09 542.56L456.99 542.79L456.86 543.04L456.71 543.29L456.53 543.55L456.33 543.82L456.11 544.1L455.87 544.39L455.6 544.7L455.31 545.02L454.99 545.35L454.65 545.69L454.29 546.05L453.9 546.43L453.48 546.82L453.05 547.23L452.58 547.66L452.1 548.11L451.58 548.57L451.26 548.86L450.92 549.16L450.56 549.46L450.19 549.76L449.79 550.06L449.38 550.37L448.95 550.68L448.51 550.99L448.05 551.3L447.58 551.61L447.1 551.92L446.6 552.23L446.09 552.54L445.57 552.85L445.03 553.16L444.49 553.47L443.94 553.78L443.38 554.08L442.81 554.38L442.24 554.68L441.66 554.98L441.07 555.27L440.48 555.55L439.88 555.84L439.28 556.12L438.67 556.39L438.07 556.66L437.46 556.92L436.85 557.17L436.24 557.42L435.63 557.67L435.02 557.9L434.41 558.13L433.81 558.35L433.21 558.56L432.61 558.76L432.01 558.95L431.43 559.14L430.84 559.31L430.27 559.47L429.15 559.78L428.09 560.08L427.08 560.37L426.12 560.65L425.22 560.92L424.37 561.19L423.57 561.46L422.82 561.72L422.12 561.98L421.46 562.25L420.86 562.51L420.29 562.79L419.78 563.06L419.3 563.35L418.87 563.64L418.49 563.95L418.14 564.27L417.84 564.6L417.57 564.95L417.34 565.32L417.15 565.7L417 566.11L416.88 566.54L416.8 566.99L416.75 567.47L416.73 567.98L416.75 568.51L416.79 569.07L416.87 569.67L416.98 570.3L417.11 570.97L417.28 571.67L417.46 572.41L417.68 573.19L417.92 574.02L418.18 574.88L418.47 575.79L418.77 576.75L419.1 577.76L419.45 578.81L422.95 588.31L435.04 575.3L435.53 574.76L436.06 574.2L436.63 573.62L437.22 573.03L437.85 572.42L438.51 571.79L439.19 571.14L439.9 570.48L440.64 569.81L441.41 569.13L442.2 568.43L443.01 567.72L443.84 567.01L444.7 566.28L445.57 565.55L446.46 564.81L447.37 564.06L448.3 563.31L449.24 562.56L450.19 561.8L451.16 561.04L452.14 560.28L453.12 559.52L454.12 558.76L455.13 558.01L456.14 557.25L457.16 556.5L458.18 555.75L459.2 555.01L460.23 554.28L461.26 553.55L462.28 552.84L463.31 552.13L464.33 551.43L465.35 550.74L466.37 550.07L467.38 549.41L468.38 548.76L469.37 548.13L470.36 547.52L493.58 532.4L500.9 540.48L501.78 541.43L502.65 542.32L503.51 543.15L504.37 543.92L505.22 544.63L506.07 545.29L506.91 545.88L507.75 546.41L508.59 546.89L509.43 547.3L510.26 547.66L511.09 547.95L511.92 548.18L512.76 548.35L513.59 548.46L514.43 548.51L515.26 548.5L516.11 548.42L516.95 548.29L517.8 548.09L518.66 547.83L519.52 547.5L520.39 547.11L521.26 546.66L522.15 546.15L523.04 545.57L523.94 544.92L524.86 544.22L525.78 543.45L526.72 542.61L527.66 541.71L528.62 540.74L529.6 539.71L530.58 538.61L531.59 537.45L532.61 536.22L533.64 534.92L534.69 533.56L535.76 532.13L536.85 530.64L537.4 529.87L537.94 529.11L538.47 528.36L539 527.61L539.51 526.86L540.02 526.12L540.53 525.39L541.02 524.66L541.5 523.94L541.98 523.23L542.44 522.53L542.9 521.84L543.34 521.16L543.77 520.49L544.2 519.83L544.6 519.19L545 518.56L545.39 517.94L545.76 517.34L546.12 516.75L546.46 516.18L546.79 515.62L547.11 515.08L547.41 514.56L547.7 514.06L547.97 513.57L548.22 513.11L548.46 512.67L548.68 512.25L548.89 511.85L549.07 511.47L549.24 511.11L549.39 510.78L549.52 510.48L549.64 510.2L549.73 509.94L549.8 509.71L549.85 509.51L549.89 509.33L549.9 509.19L549.85 508.86L549.71 508.57L549.49 508.31L549.18 508.08L548.8 507.89L548.34 507.72L547.81 507.59L547.21 507.48L546.55 507.41L545.82 507.36L545.05 507.34L544.22 507.35L543.34 507.39L542.42 507.45L541.46 507.53L540.46 507.64L539.43 507.77L538.37 507.93L537.28 508.11L536.18 508.31L535.05 508.53L533.92 508.77L532.77 509.03L531.62 509.31L530.46 509.61L529.31 509.93L528.16 510.26L527.03 510.61L525.9 510.98L524.8 511.36L523.71 511.76L522.65 512.17L521.62 512.59L520.62 513.03L519.66 513.48L518.74 513.93L517.86 514.4L517.03 514.88L516.26 515.37L515.53 515.87L514.45 516.6L513.43 517.25L512.49 517.83L511.62 518.34L510.82 518.78L510.08 519.15L509.42 519.44L508.83 519.67L508.31 519.83L507.85 519.92L507.47 519.94L507.15 519.89L506.91 519.78L506.73 519.6L506.61 519.35L506.57 519.04L506.59 518.66L506.68 518.22L506.84 517.71L507.06 517.14L507.35 516.51L507.71 515.82L508.13 515.06L508.62 514.25L509.17 513.37L509.79 512.44L510.47 511.44L511.21 510.39L512.02 509.27L512.89 508.1L513.83 506.88L514.83 505.59L515.9 504.26L517.02 502.86L518.21 501.41L519.46 499.91L520.77 498.35L522.15 496.74L523.58 495.08L525.08 493.36L525.94 492.36L526.78 491.36L527.63 490.37L528.46 489.38L529.29 488.4L530.1 487.43L530.91 486.46L531.7 485.51L532.48 484.56L533.25 483.62L534.01 482.7L534.75 481.78L535.48 480.88L536.19 480L536.89 479.13L537.57 478.27L538.24 477.44L538.88 476.62L539.51 475.81L540.11 475.03L540.7 474.27L541.26 473.53L541.81 472.81L542.33 472.12L542.83 471.45L543.3 470.8L543.75 470.18L544.18 469.59L544.57 469.03L544.95 468.49L545.29 467.98L545.61 467.5L545.89 467.06L546.15 466.64L546.38 466.26L546.57 465.91L546.74 465.6L546.87 465.32L546.97 465.08L547.03 464.88L547.11 464.62L547.19 464.38L547.28 464.15L547.37 463.94L547.47 463.74L547.58 463.56L547.7 463.39L547.83 463.24L547.97 463.1L548.11 462.97L548.27 462.86L548.43 462.77L548.61 462.69L548.8 462.62L549 462.57L549.21 462.54L549.43 462.52L549.66 462.51L549.91 462.52L550.17 462.55L550.45 462.59L550.74 462.65L551.04 462.72L551.36 462.8L551.7 462.9L552.05 463.02L552.41 463.15L552.79 463.3L553.19 463.46L553.61 463.64L554.04 463.84L554.5 464.05L554.97 464.27L555.46 464.51L555.96 464.77L556.49 465.04L557.04 465.33L557.61 465.63L558.2 465.95L558.81 466.29L559.8 466.8L560.78 467.27L561.75 467.71L562.7 468.11L563.64 468.47L564.57 468.8L565.49 469.09L566.4 469.34L567.3 469.55L568.2 469.73L569.08 469.87L569.96 469.97L570.84 470.03L571.71 470.05L572.58 470.03L573.45 469.97L574.31 469.86L575.17 469.72L576.04 469.54L576.9 469.32L577.77 469.05L578.64 468.75L579.51 468.4L580.38 468.01L581.27 467.57L582.15 467.1L583.05 466.58L583.95 466.01L584.86 465.4L585.78 464.75L586.72 464.06L587.66 463.31L588.61 462.53L589.58 461.7L590.56 460.82L591.56 459.9L592.57 458.93L593.6 457.91L594.65 456.85L595.71 455.74L596.32 455.11L596.92 454.49L597.49 453.87L598.04 453.26L598.58 452.66L599.1 452.07L599.6 451.48L600.08 450.9L600.54 450.32L600.99 449.75L601.42 449.18L601.83 448.62L602.23 448.06L602.61 447.5L602.97 446.95L603.32 446.4L603.65 445.85L603.96 445.3L604.26 444.76L604.54 444.22L604.81 443.68L605.06 443.14L605.3 442.6L605.52 442.06L605.72 441.53L605.91 440.99L606.09 440.45L606.26 439.91L606.4 439.37L606.54 438.82L606.66 438.28L606.77 437.73L606.86 437.18L606.94 436.63L607.01 436.07L607.07 435.51L607.11 434.95L607.14 434.38L607.16 433.81L607.17 433.23L607.16 432.4L607.13 431.58L607.09 430.79L607.04 430.01L606.97 429.26L606.88 428.53L606.79 427.82L606.67 427.13L606.55 426.47L606.42 425.84L606.27 425.23L606.11 424.64L605.94 424.08L605.76 423.56L605.57 423.06L605.37 422.59L605.17 422.15L604.95 421.74L604.73 421.36L604.5 421.01L604.27 420.7L604.02 420.42L603.78 420.17L603.52 419.96L603.27 419.79L603.01 419.65L602.74 419.55L602.47 419.49L602.2 419.47L601.93 419.48L601.66 419.54L601.38 419.64L601.11 419.78L600.83 419.96L600.56 420.18L600.29 420.45L600.01 420.76L599.74 421.12L599.48 421.53L599.21 421.98L599.14 422.11L599.05 422.24L598.96 422.37L598.85 422.5L598.74 422.63L598.62 422.76L598.49 422.89L598.36 423.02L598.22 423.14L598.07 423.27L597.91 423.39L597.75 423.51L597.58 423.63L597.41 423.75L597.23 423.86L597.05 423.98L596.86 424.08L596.67 424.19L596.47 424.3L596.27 424.4L596.06 424.49L595.86 424.59L595.65 424.68L595.43 424.76L595.22 424.85L595 424.92L594.78 425L594.56 425.07L594.33 425.13L594.11 425.19L593.89 425.25L593.66 425.3L593.44 425.34L593.21 425.38L592.99 425.42L592.77 425.44L592.55 425.47L592.33 425.48L592.11 425.49L591.89 425.49L591.65 425.5L591.38 425.52L591.11 425.55L590.81 425.59L590.5 425.64L590.18 425.7L589.85 425.77L589.5 425.85L589.14 425.95L588.76 426.05L588.38 426.16L587.98 426.28L587.58 426.41L587.16 426.55L586.74 426.7L586.3 426.86L585.86 427.02L585.41 427.19L584.96 427.37L584.5 427.56L584.03 427.76L583.55 427.96L583.08 428.17L582.59 428.38L582.11 428.6L581.62 428.83L581.12 429.06L580.63 429.3L580.13 429.55L579.63 429.8L579.14 430.05L578.64 430.31L578.14 430.57L577.64 430.84L577.15 431.11L576.65 431.39L576.16 431.67L575.68 431.95L575.19 432.24L574.71 432.53L562.94 439.21L572.49 419.87L572.85 419.07L573.21 418.25L573.58 417.42L573.95 416.58L574.32 415.72L574.7 414.85L575.08 413.98L575.46 413.09L575.84 412.19L576.22 411.29L576.6 410.38L576.98 409.47L577.36 408.56L577.73 407.64L578.11 406.72L578.48 405.8L578.85 404.89L579.21 403.97L579.57 403.06L579.92 402.15L580.27 401.25L580.62 400.36L580.95 399.48L581.28 398.6L581.61 397.74L581.92 396.88L582.23 396.04L582.52 395.22L582.81 394.4L583.09 393.61L583.36 392.83L583.61 392.07L583.86 391.33L584.09 390.62L584.31 389.92L584.52 389.25L584.72 388.6L584.9 387.98L585.06 387.38L585.21 386.81L585.47 385.89L585.72 385L585.96 384.16L586.19 383.36L586.42 382.61L586.64 381.89L586.86 381.21L587.07 380.58L587.29 379.98L587.5 379.41L587.72 378.88L587.93 378.39L588.15 377.93L588.38 377.51L588.61 377.11L588.85 376.75L589.1 376.42L589.36 376.12L589.63 375.85L589.91 375.6L590.2 375.39L590.51 375.2L590.83 375.03L591.17 374.89L591.53 374.77L591.9 374.67L592.3 374.6L592.72 374.55L593.16 374.51L593.62 374.5L594.11 374.5L594.63 374.53L595.17 374.56L595.75 374.62L596.35 374.68L596.98 374.76L597.65 374.86L598.35 374.96L599.08 375.08L599.85 375.21L600.84 375.38L601.81 375.51L602.77 375.6L603.7 375.65L604.62 375.67L605.52 375.65L606.41 375.59L607.28 375.48L608.13 375.34L608.98 375.15L609.8 374.92L610.62 374.65L611.43 374.33L612.22 373.97L613 373.56L613.78 373.11L614.54 372.61L615.3 372.06L616.05 371.46L616.79 370.81L617.53 370.12L618.26 369.37L618.99 368.57L619.71 367.71L620.43 366.81L621.15 365.85L621.86 364.84L622.58 363.77L623.29 362.64L624.01 361.46L624.73 360.22L625.44 358.93L626.17 357.57L626.89 356.16L627.62 354.68L628.35 353.14L629.09 351.55L629.84 349.88L630.59 348.16L631.35 346.37L632.05 344.74L632.71 343.16L633.34 341.63L633.94 340.16L634.51 338.74L635.04 337.38L635.54 336.08L636 334.82L636.44 333.63L636.83 332.48L637.2 331.4L637.53 330.37L637.83 329.39L638.09 328.47L638.33 327.61L638.52 326.8L638.69 326.05L638.82 325.35L638.92 324.71L638.98 324.13L639.01 323.61L639.01 323.14L638.98 322.73L638.91 322.37L638.8 322.07L638.67 321.83L638.5 321.65L638.3 321.53L638.06 321.46L637.79 321.45L637.49 321.5L637.15 321.61L636.78 321.77L636.38 322L635.94 322.28L635.47 322.62L634.97 323.02L634.43 323.48L633.86 323.99L633.26 324.57L633.01 324.83L632.76 325.09L632.49 325.34L632.22 325.59L631.94 325.84L631.65 326.08L631.35 326.31L631.04 326.54L630.73 326.77L630.41 326.99L630.08 327.2L629.75 327.41L629.41 327.62L629.07 327.82L628.72 328.01L628.37 328.19L628.01 328.38L627.66 328.55L627.29 328.72L626.93 328.88L626.57 329.03L626.2 329.18L625.83 329.32L625.47 329.46L625.1 329.59L624.73 329.71L624.37 329.82L624 329.92L623.64 330.02L623.28 330.11L622.92 330.19L622.57 330.27L622.21 330.33L621.87 330.39L621.52 330.44L621.19 330.48L620.85 330.51L620.53 330.53L620.21 330.54L619.89 330.55L619.58 330.56L619.25 330.59L618.91 330.64L618.55 330.7L618.19 330.79L617.81 330.89L617.43 331.02L617.03 331.16L616.63 331.31L616.21 331.49L615.79 331.68L615.36 331.89L614.93 332.11L614.48 332.35L614.03 332.61L613.58 332.88L613.11 333.16L612.65 333.47L612.18 333.78L611.7 334.11L611.22 334.45L610.74 334.81L610.25 335.18L609.77 335.56L609.28 335.96L608.79 336.37L608.3 336.79L607.81 337.22L607.32 337.66L606.83 338.12L606.34 338.58L605.85 339.06L605.37 339.54L604.89 340.04L604.41 340.54L603.93 341.06L603.46 341.58L602.99 342.12L602.53 342.66L602.08 343.21L591.26 355.52L591.26 313.32L591.26 310.53L591.26 307.87L591.27 305.32L591.28 302.89L591.3 300.58L591.32 298.37L591.34 296.27L591.37 294.27L591.41 292.38L591.45 290.58L591.49 288.87L591.55 287.26L591.61 285.73L591.68 284.29L591.76 282.93L591.85 281.64L591.94 280.43L592.05 279.3L592.17 278.23L592.29 277.23L592.43 276.29L592.58 275.41L592.74 274.59L592.91 273.82L593.09 273.1L593.29 272.43L593.5 271.8L593.72 271.21L593.96 270.66L594.21 270.15L594.48 269.66L594.76 269.21L595.06 268.78L595.37 268.37L595.7 267.98L596.05 267.6L596.42 267.24L596.8 266.89L597.2 266.54L597.62 266.2L598.26 265.68L598.9 265.12L599.53 264.53L600.15 263.91L600.77 263.26L601.38 262.57L601.98 261.85L602.57 261.11L603.16 260.34L603.73 259.54L604.29 258.72L604.85 257.87L605.39 257L605.91 256.11L606.43 255.2L606.93 254.26L607.42 253.32L607.89 252.35L608.35 251.37L608.8 250.37L609.22 249.37L609.63 248.34L610.03 247.31L610.4 246.27L610.76 245.22L611.1 244.17L611.42 243.1L611.72 242.04L611.99 240.96L612.25 239.89L612.49 238.81L612.7 237.74L612.89 236.67L613.06 235.59L613.2 234.52L613.32 233.46L613.41 232.4L613.48 231.35L613.52 230.31L613.53 229.27L613.52 228.79L613.5 228.27L613.47 227.74L613.42 227.18L613.36 226.59L613.28 225.99L613.2 225.36L613.1 224.72L612.99 224.05L612.86 223.37L612.73 222.68L612.58 221.96L612.43 221.24L612.26 220.5L612.09 219.74L611.9 218.98L611.7 218.2L611.5 217.42L611.29 216.63L611.06 215.82L610.83 215.02L610.59 214.2L610.35 213.39L610.09 212.56L609.83 211.74L609.56 210.91L609.29 210.09L609.01 209.26L608.72 208.44L608.43 207.62L608.13 206.8L607.83 205.98L607.52 205.17L607.21 204.37L606.89 203.57L606.57 202.79L606.25 202.01L605.92 201.24L605.59 200.48L605.26 199.74L596.98 181.8L589.67 192L589.36 192.43L589.04 192.88L588.73 193.35L588.42 193.84L588.11 194.34L587.8 194.86L587.49 195.39L587.18 195.94L586.87 196.5L586.56 197.08L586.26 197.66L585.95 198.26L585.65 198.87L585.36 199.48L585.06 200.11L584.77 200.74L584.49 201.38L584.21 202.03L583.93 202.68L583.66 203.34L583.4 204L583.14 204.67L582.88 205.33L582.63 206L582.39 206.67L582.16 207.34L581.93 208.01L581.71 208.67L581.5 209.34L581.3 210L581.11 210.66L580.92 211.31L580.75 211.96L580.58 212.6L580.42 213.23L580.28 213.86L580.14 214.47L580.02 215.08L579.91 215.68L579.8 216.26L577.58 230.33L574.4 219.78L574.25 219.35L574.09 218.91L573.93 218.45L573.77 217.98L573.59 217.5L573.42 217.01L573.23 216.51L573.04 216L572.85 215.48L572.65 214.96L572.44 214.42L572.23 213.88L572.02 213.33L571.8 212.78L571.58 212.23L571.35 211.67L571.12 211.1L570.89 210.54L570.66 209.97L570.42 209.41L570.18 208.84L569.94 208.27L569.69 207.71L569.45 207.15L569.2 206.59L568.95 206.03L568.7 205.48L568.45 204.93L568.2 204.39L567.95 203.86L567.7 203.33L567.45 202.81L567.2 202.3L566.95 201.8L566.7 201.31L566.46 200.83L566.21 200.36L565.97 199.9L565.73 199.46L565.49 199.03L565.09 198.31L564.72 197.62L564.36 196.96L564.03 196.34L563.71 195.73L563.42 195.16L563.15 194.61L562.9 194.08L562.67 193.57L562.46 193.08L562.28 192.6L562.11 192.15L561.97 191.7L561.85 191.27L561.75 190.85L561.67 190.44L561.62 190.03L561.59 189.63L561.58 189.23L561.59 188.84L561.62 188.44L561.68 188.04L561.76 187.64L561.87 187.23L561.99 186.82L562.14 186.4L562.32 185.97L562.52 185.52L562.74 185.07L562.98 184.59L563.25 184.1L563.54 183.59L563.86 183.06L564.2 182.51L564.56 181.94L564.95 181.34L565.37 180.71L565.81 180.05L566.27 179.36L566.76 178.64L567.41 177.62L568.05 176.51L568.65 175.33L569.23 174.07L569.78 172.75L570.31 171.35L570.81 169.89L571.28 168.38L571.73 166.81L572.15 165.2L572.54 163.54L572.9 161.84L573.24 160.1L573.55 158.34L573.83 156.55L574.08 154.73L574.3 152.9L574.49 151.05L574.66 149.2L574.79 147.34L574.9 145.48L574.97 143.63L575.02 141.78L575.03 139.95L575.01 138.14L574.96 136.34L574.88 134.58L574.77 132.84L574.63 131.14L574.45 129.48L574.25 127.87L574.01 126.3L573.74 124.79L573.43 123.33L573.09 121.94L572.72 120.61L572.32 119.35L571.88 118.17L571.4 117.06L570.9 116.04L570.68 115.67L570.46 115.29L570.25 114.91L570.03 114.52L569.81 114.12L569.59 113.73L569.38 113.32L569.16 112.92L568.94 112.51L568.73 112.1L568.51 111.69L568.3 111.27L568.09 110.86L567.88 110.44L567.67 110.02L567.47 109.61L567.27 109.19L567.07 108.78L566.87 108.37L566.68 107.96L566.49 107.55L566.31 107.14L566.12 106.74L565.95 106.35L565.77 105.95L565.61 105.57L565.44 105.19L565.29 104.81L565.14 104.44L564.99 104.08L564.85 103.72L564.72 103.37L564.59 103.03L564.47 102.7L564.35 102.38L564.25 102.07L564.15 101.77L564.06 101.47L563.97 101.19L563.9 100.92L563.68 100.28L563.46 99.68L563.24 99.12L563.01 98.59L562.78 98.11L562.55 97.66L562.3 97.26L562.06 96.89L561.8 96.56L561.54 96.27L561.28 96.03L561 95.82L560.72 95.66L560.42 95.53L560.12 95.45L559.81 95.4L559.48 95.4L559.15 95.44L558.8 95.52L558.45 95.65L558.08 95.81L557.69 96.02L557.3 96.27L556.89 96.57L556.46 96.91L556.02 97.29L555.56 97.71L555.09 98.18L554.6 98.69L554.1 99.24L553.57 99.84L553.03 100.48L552.47 101.17L551.89 101.9L551.29 102.68L550.68 103.51L550.04 104.37L549.37 105.29L548.69 106.25L547.99 107.25L547.45 108.06L546.94 108.84L546.45 109.59L545.98 110.33L545.53 111.05L545.11 111.75L544.71 112.43L544.33 113.1L543.97 113.75L543.63 114.4L543.31 115.03L543.02 115.66L542.74 116.28L542.48 116.9L542.24 117.51L542.02 118.13L541.81 118.74L541.63 119.36L541.46 119.99L541.31 120.62L541.17 121.25L541.05 121.9L540.95 122.56L540.86 123.23L540.79 123.91L540.73 124.62L540.69 125.34L540.66 126.08L540.65 126.84L540.65 127.63L540.66 128.44L540.69 129.27L540.73 130.14L540.77 131.04L540.84 131.96L540.91 132.93L540.99 133.92L541.09 134.96L541.19 136.03L541.31 137.14L541.38 137.86L541.47 138.58L541.56 139.32L541.67 140.06L541.78 140.8L541.9 141.55L542.03 142.3L542.16 143.06L542.3 143.82L542.45 144.58L542.61 145.34L542.78 146.11L542.94 146.87L543.12 147.62L543.3 148.38L543.49 149.13L543.68 149.88L543.88 150.62L544.08 151.36L544.29 152.09L544.5 152.81L544.71 153.52L544.93 154.22L545.15 154.92L545.38 155.6L545.61 156.27L545.84 156.92L546.07 157.56L546.3 158.19L546.54 158.8L546.78 159.4L547.02 159.97L547.26 160.53L547.5 161.07L547.74 161.59L547.98 162.09L548.22 162.57L548.46 163.03L548.7 163.46L548.94 163.87L549.25 164.41L549.53 164.93L549.81 165.44L550.07 165.92L550.31 166.38L550.55 166.82L550.76 167.24L550.97 167.64L551.15 168.03L551.33 168.39L551.49 168.74L551.63 169.06L551.76 169.37L551.88 169.66L551.98 169.93L552.07 170.19L552.15 170.42L552.21 170.64L552.25 170.85L552.28 171.03L552.3 171.2L552.3 171.36L552.29 171.49L552.26 171.62L552.22 171.72L552.17 171.81L552.1 171.89L552.02 171.95L551.92 172L551.81 172.03L551.68 172.05L551.54 172.05L551.38 172.04L551.21 172.02L551.03 171.98L550.83 171.93L550.62 171.87L550.39 171.79L550.15 171.7L549.9 171.6L549.29 171.32L548.61 170.9L547.87 170.34L547.06 169.65L546.2 168.85L545.29 167.93L544.33 166.9L543.32 165.77L542.28 164.55L541.21 163.25L540.1 161.86L538.97 160.4L537.82 158.88L536.65 157.3L535.47 155.66L534.28 153.98L533.09 152.26L531.9 150.51L530.71 148.74L529.53 146.95L528.37 145.14L527.23 143.33L526.11 141.53L525.02 139.73L523.96 137.95L522.94 136.19L521.95 134.46L521.01 132.77L520.13 131.12L519.29 129.52L518.52 127.98L517.81 126.5L517.16 125.1L516.59 123.77L516.09 122.52L515.67 121.37L515.34 120.31L515.1 119.36L514.95 118.52L514.9 117.8L514.87 116.95L514.79 116.06L514.66 115.16L514.47 114.23L514.24 113.29L513.96 112.32L513.63 111.34L513.25 110.35L512.83 109.34L512.37 108.32L511.86 107.29L511.32 106.25L510.73 105.21L510.11 104.16L509.45 103.1L508.75 102.05L508.02 100.99L507.25 99.94L506.46 98.89L505.63 97.85L504.78 96.81L503.89 95.78L502.98 94.76L502.05 93.75L501.09 92.75L500.11 91.77L499.1 90.81L498.08 89.86L497.03 88.94L495.97 88.03L494.9 87.15L493.8 86.29L492.7 85.46L491.58 84.66L490.45 83.89L489.31 83.15L488.16 82.44L487 81.76L485.84 81.13L484.67 80.53L483.55 79.96L482.46 79.42L481.41 78.91L480.39 78.43L479.41 77.97L478.46 77.54L477.55 77.14L476.67 76.76L475.83 76.42L475.01 76.09L474.23 75.8L473.48 75.53L472.76 75.29L472.07 75.07L471.4 74.88L470.77 74.72L470.16 74.58L469.57 74.47L469.02 74.39L468.49 74.33L467.98 74.3L467.5 74.29L467.04 74.31L466.6 74.35ZM170.06 74.16L169.57 74.17L169.05 74.2L168.66 74.2L168.25 74.22L167.83 74.24L167.38 74.28L166.92 74.32L166.44 74.38L165.95 74.44L165.45 74.52L164.93 74.6L164.4 74.69L163.85 74.78L163.3 74.89L162.73 75L162.15 75.13L161.57 75.25L160.97 75.39L160.37 75.53L159.76 75.68L159.14 75.84L158.51 76L157.89 76.17L157.25 76.34L156.61 76.52L155.97 76.7L155.33 76.89L154.68 77.09L154.04 77.29L153.39 77.49L152.74 77.7L152.1 77.91L151.45 78.12L150.81 78.34L150.17 78.56L149.53 78.78L148.9 79.01L148.27 79.24L147.65 79.47L147.04 79.7L146.43 79.94L145.83 80.18L144.83 80.62L143.87 81.04L142.96 81.45L142.1 81.84L141.28 82.22L140.51 82.59L139.78 82.95L139.09 83.31L138.43 83.66L137.82 84.01L137.24 84.35L136.7 84.69L136.2 85.04L135.72 85.38L135.29 85.73L134.88 86.09L134.5 86.45L134.15 86.83L133.83 87.21L133.54 87.6L133.27 88.01L133.03 88.44L132.81 88.88L132.61 89.34L132.43 89.82L132.28 90.32L132.14 90.85L132.02 91.4L131.91 91.98L131.82 92.59L131.75 93.22L131.69 93.89L131.64 94.59L131.6 95.33L131.56 96.1L131.54 96.91L131.53 97.77L131.52 98.66L131.51 99.59L131.51 100.57L131.5 101.64L131.47 102.7L131.42 103.73L131.34 104.76L131.23 105.78L131.1 106.79L130.93 107.81L130.73 108.82L130.5 109.84L130.23 110.86L129.93 111.9L129.58 112.95L129.19 114.02L128.75 115.1L128.27 116.22L127.74 117.35L127.16 118.52L126.53 119.73L125.85 120.96L125.11 122.24L124.31 123.56L123.45 124.93L122.53 126.35L121.55 127.81L120.5 129.34L119.38 130.92L118.19 132.57L116.93 134.28L115.6 136.06L114.2 137.91L112.71 139.83L111.15 141.84L109.5 143.92L107.78 146.09L105.96 148.35L104.06 150.69L102.08 153.13L100 155.67L97.82 158.31L95.56 161.05L85.06 174.07L90.15 162.46L90.59 161.4L91.02 160.28L91.43 159.1L91.82 157.86L92.19 156.58L92.54 155.25L92.88 153.88L93.19 152.47L93.49 151.03L93.76 149.55L94.02 148.06L94.26 146.54L94.48 145L94.67 143.45L94.85 141.9L95.01 140.33L95.15 138.77L95.27 137.21L95.36 135.65L95.44 134.11L95.49 132.58L95.53 131.07L95.54 129.59L95.53 128.13L95.5 126.7L95.45 125.31L95.38 123.96L95.28 122.65L95.17 121.39L95.03 120.18L94.86 119.03L94.68 117.93L94.47 116.9L94.24 115.94L93.99 115.05L93.71 114.24L93.42 113.51L93.09 112.86L92.75 112.29L92.38 111.82L92.21 111.64L92.05 111.44L91.89 111.24L91.73 111.03L91.57 110.81L91.42 110.58L91.27 110.35L91.12 110.12L90.98 109.88L90.84 109.63L90.7 109.38L90.57 109.12L90.44 108.86L90.31 108.6L90.19 108.33L90.07 108.06L89.96 107.79L89.84 107.51L89.74 107.23L89.63 106.95L89.53 106.66L89.44 106.37L89.35 106.09L89.26 105.8L89.18 105.51L89.1 105.22L89.03 104.93L88.96 104.64L88.9 104.35L88.84 104.06L88.79 103.77L88.74 103.49L88.7 103.2L88.66 102.92L88.63 102.64L88.61 102.36L88.59 102.08L88.57 101.81L88.56 101.54L88.56 101.27L88.56 101.01L88.55 100.75L88.54 100.5L88.52 100.24L88.5 99.99L88.48 99.75L88.45 99.5L88.42 99.27L88.38 99.03L88.34 98.8L88.3 98.58L88.25 98.36L88.2 98.14L88.15 97.93L88.09 97.73L88.03 97.53L87.97 97.33L87.9 97.15L87.83 96.97L87.76 96.79L87.69 96.62L87.62 96.46L87.54 96.31L87.46 96.16L87.38 96.02L87.3 95.89L87.21 95.76L87.12 95.65L87.04 95.54L86.95 95.44L86.86 95.35L86.77 95.27L86.67 95.19L86.58 95.13L86.49 95.07L86.39 95.03L86.3 94.99L86.2 94.97L86.11 94.95L86.01 94.95L85.64 94.97L85.25 95.06L84.83 95.2L84.39 95.39L83.94 95.64L83.46 95.93L82.96 96.27L82.45 96.66L81.93 97.1L81.38 97.58L80.83 98.1L80.27 98.66L79.69 99.26L79.11 99.89L78.51 100.56L77.91 101.27L77.31 102.01L76.7 102.77L76.09 103.57L75.47 104.4L74.86 105.25L74.25 106.12L73.63 107.02L73.02 107.93L72.42 108.87L71.82 109.82L71.23 110.79L70.64 111.78L70.07 112.78L69.5 113.79L68.95 114.8L68.41 115.83L67.88 116.86L67.37 117.9L66.88 118.94L66.4 119.98L65.94 121.02L65.51 122.06L65.09 123.1L64.7 124.13L64.37 125.01L64.06 125.86L63.77 126.68L63.49 127.47L63.23 128.23L62.99 128.97L62.77 129.68L62.56 130.38L62.37 131.06L62.19 131.72L62.03 132.37L61.89 133L61.76 133.63L61.66 134.25L61.56 134.86L61.49 135.46L61.43 136.07L61.39 136.67L61.36 137.28L61.36 137.89L61.36 138.51L61.39 139.13L61.43 139.77L61.49 140.41L61.56 141.07L61.66 141.75L61.76 142.44L61.89 143.16L62.03 143.89L62.19 144.65L62.37 145.44L62.56 146.25L62.77 147.1L62.99 147.98L63.23 148.89L63.49 149.83L63.77 150.82L64.06 151.84L64.37 152.91L64.7 154.02L64.91 154.71L65.14 155.4L65.37 156.09L65.6 156.79L65.84 157.48L66.08 158.18L66.33 158.88L66.58 159.57L66.83 160.26L67.09 160.95L67.35 161.64L67.62 162.32L67.88 162.99L68.15 163.66L68.42 164.33L68.69 164.98L68.97 165.63L69.24 166.27L69.51 166.9L69.79 167.52L70.06 168.12L70.34 168.72L70.61 169.3L70.88 169.87L71.15 170.43L71.42 170.97L71.69 171.49L71.96 172L72.22 172.49L72.48 172.96L72.74 173.42L72.99 173.85L73.25 174.26L73.49 174.66L73.74 175.03L73.97 175.38L74.21 175.7L74.44 176L74.66 176.28L74.88 176.53L75.2 176.92L75.51 177.29L75.8 177.66L76.07 178.02L76.32 178.36L76.56 178.7L76.77 179.03L76.97 179.36L77.15 179.68L77.31 180L77.45 180.32L77.57 180.63L77.68 180.94L77.76 181.26L77.82 181.57L77.87 181.89L77.9 182.21L77.9 182.54L77.89 182.87L77.86 183.21L77.81 183.56L77.74 183.91L77.65 184.28L77.53 184.65L77.4 185.04L77.25 185.45L77.08 185.86L76.89 186.29L76.68 186.74L76.44 187.21L76.19 187.69L75.92 188.2L75.62 188.72L75.31 189.27L74.97 189.84L74.61 190.43L74.23 191.04L73.83 191.69L73.41 192.36L72.97 193.05L72.68 193.49L72.38 193.94L72.08 194.42L71.77 194.91L71.46 195.43L71.14 195.96L70.81 196.51L70.48 197.07L70.15 197.65L69.82 198.25L69.48 198.86L69.14 199.48L68.79 200.11L68.45 200.75L68.1 201.41L67.76 202.07L67.41 202.74L67.06 203.42L66.71 204.1L66.37 204.79L66.02 205.49L65.68 206.18L65.34 206.88L65 207.59L64.66 208.29L64.33 209L64 209.7L63.67 210.4L63.35 211.1L63.04 211.8L62.73 212.49L62.42 213.17L62.12 213.86L61.83 214.53L61.55 215.19L61.27 215.85L61 216.5L60.74 217.14L60.49 217.76L60.24 218.37L54.2 233.49L51.65 219.43L51.5 218.41L51.32 217.38L51.13 216.33L50.92 215.26L50.69 214.17L50.44 213.08L50.18 211.97L49.9 210.86L49.61 209.74L49.31 208.63L49 207.51L48.67 206.4L48.34 205.29L47.99 204.19L47.64 203.1L47.28 202.02L46.92 200.96L46.55 199.91L46.18 198.89L45.81 197.89L45.43 196.91L45.05 195.97L44.67 195.05L44.3 194.16L43.92 193.31L43.55 192.49L43.19 191.72L42.83 190.99L42.47 190.3L42.12 189.66L41.78 189.07L41.45 188.53L41.13 188.04L40.82 187.62L40.52 187.25L40.23 186.94L39.96 186.69L39.71 186.52L39.47 186.41L39.24 186.37L39.19 186.39L39.12 186.43L39.04 186.49L38.94 186.58L38.83 186.69L38.71 186.83L38.58 186.99L38.43 187.18L38.27 187.38L38.1 187.61L37.92 187.86L37.73 188.13L37.53 188.42L37.32 188.73L37.1 189.06L36.87 189.41L36.63 189.78L36.38 190.17L36.13 190.57L35.86 190.99L35.59 191.43L35.31 191.88L35.02 192.35L34.73 192.83L34.43 193.33L34.12 193.84L33.81 194.36L33.49 194.9L33.17 195.45L32.85 196.02L32.51 196.59L32.18 197.18L31.84 197.77L31.49 198.38L31.15 198.99L30.8 199.62L30.45 200.25L30.09 200.89L29.74 201.54L29.38 202.2L28.57 203.77L27.81 205.32L27.1 206.85L26.43 208.37L25.82 209.86L25.25 211.34L24.74 212.8L24.27 214.24L23.86 215.67L23.49 217.08L23.17 218.48L22.91 219.87L22.69 221.24L22.52 222.6L22.41 223.95L22.34 225.29L22.32 226.62L22.36 227.94L22.44 229.25L22.58 230.55L22.77 231.84L23 233.13L23.29 234.42L23.63 235.69L24.02 236.97L24.46 238.24L24.95 239.5L25.5 240.77L26.09 242.03L26.74 243.29L27.44 244.55L28.19 245.81L28.99 247.08L29.84 248.34L30.75 249.61L31.71 250.88L32.72 252.15L33.78 253.43L34.89 254.71L36.06 256L47.2 268.31L47.2 313.67L47.2 315.51L47.19 317.33L47.19 319.13L47.18 320.91L47.17 322.67L47.16 324.41L47.14 326.12L47.13 327.8L47.11 329.46L47.09 331.09L47.07 332.68L47.04 334.25L47.02 335.78L46.99 337.27L46.96 338.73L46.93 340.15L46.9 341.53L46.87 342.86L46.83 344.16L46.8 345.41L46.76 346.61L46.73 347.77L46.69 348.87L46.65 349.93L46.61 350.93L46.57 351.88L46.52 352.77L46.48 353.61L46.44 354.39L46.39 355.11L46.35 355.77L46.3 356.36L46.26 356.89L46.21 357.36L46.16 357.76L46.11 358.09L46.07 358.34L46.02 358.53L45.97 358.64L45.92 358.68L45.85 358.67L45.76 358.63L45.66 358.56L45.55 358.47L45.42 358.35L45.29 358.2L45.14 358.03L44.99 357.84L44.83 357.62L44.65 357.38L44.47 357.12L44.28 356.83L44.07 356.52L43.86 356.19L43.64 355.84L43.41 355.47L43.18 355.08L42.94 354.68L42.68 354.25L42.42 353.8L42.16 353.34L41.89 352.86L41.61 352.36L41.32 351.85L41.03 351.32L40.73 350.77L40.43 350.21L40.12 349.64L39.8 349.05L39.48 348.45L39.16 347.83L38.83 347.2L38.49 346.56L38.16 345.91L37.82 345.25L37.47 344.58L37.12 343.9L36.77 343.21L36.42 342.51L36.06 341.8L35.47 340.64L34.84 339.48L34.18 338.32L33.49 337.16L32.77 336.01L32.02 334.87L31.24 333.73L30.45 332.61L29.63 331.5L28.79 330.41L27.94 329.33L27.08 328.28L26.2 327.24L25.31 326.23L24.42 325.25L23.52 324.29L22.62 323.37L21.71 322.47L20.81 321.61L19.91 320.79L19.02 320.01L18.14 319.26L17.27 318.56L16.41 317.9L15.56 317.29L14.73 316.73L13.92 316.21L13.14 315.75L12.37 315.35L11.63 315L10.92 314.71L10.24 314.48L9.59 314.31L8.98 314.21L8.4 314.18L7.87 314.21L7.37 314.32L6.92 314.49L6.51 314.75L6.15 315.08L6.08 315.17L6.01 315.29L5.94 315.44L5.87 315.62L5.8 315.82L5.73 316.05L5.66 316.3L5.59 316.58L5.52 316.88L5.45 317.21L5.39 317.56L5.32 317.93L5.26 318.32L5.19 318.73L5.13 319.16L5.07 319.61L5.01 320.07L4.95 320.56L4.9 321.06L4.84 321.58L4.79 322.12L4.74 322.67L4.69 323.23L4.64 323.81L4.6 324.4L4.55 325.01L4.51 325.62L4.48 326.25L4.44 326.89L4.41 327.54L4.38 328.2L4.35 328.86L4.33 329.54L4.31 330.22L4.29 330.9L4.27 331.6L4.26 332.3L4.25 333L4.25 333.71L4.25 334.42L4.27 336.11L4.33 337.78L4.44 339.4L4.58 341L4.77 342.55L5 344.07L5.27 345.55L5.58 346.99L5.93 348.4L6.32 349.76L6.74 351.09L7.21 352.38L7.71 353.63L8.25 354.83L8.83 356L9.44 357.12L10.09 358.2L10.77 359.24L11.49 360.24L12.24 361.19L13.03 362.09L13.85 362.96L14.7 363.77L15.58 364.55L16.5 365.27L17.45 365.95L18.43 366.58L19.45 367.17L20.49 367.7L21.56 368.19L22.66 368.63L23.79 369.02L24.95 369.36L26.14 369.65L27.36 369.88L28.6 370.07L29.87 370.2L31.16 370.28L32.49 370.31L33.83 370.29L46.24 369.58L58.01 397.71L58.49 398.87L58.96 400.02L59.42 401.17L59.88 402.3L60.33 403.43L60.78 404.55L61.22 405.65L61.65 406.74L62.07 407.82L62.49 408.88L62.9 409.93L63.3 410.97L63.68 411.98L64.06 412.98L64.44 413.95L64.8 414.91L65.15 415.84L65.48 416.75L65.81 417.64L66.13 418.51L66.43 419.34L66.72 420.15L67 420.94L67.27 421.69L67.52 422.42L67.76 423.11L67.99 423.77L68.2 424.4L68.39 424.99L68.57 425.55L68.74 426.08L68.89 426.57L69.02 427.02L69.14 427.43L69.24 427.8L69.32 428.13L69.38 428.41L69.43 428.66L69.46 428.86L69.47 429.01L69.44 429.23L69.34 429.41L69.18 429.56L68.96 429.67L68.68 429.75L68.35 429.8L67.96 429.82L67.52 429.8L67.03 429.76L66.5 429.69L65.92 429.59L65.3 429.46L64.64 429.3L63.94 429.12L63.21 428.92L62.44 428.69L61.65 428.44L60.82 428.17L59.97 427.87L59.09 427.56L58.19 427.23L57.27 426.88L56.33 426.51L55.38 426.12L54.41 425.72L53.44 425.31L52.45 424.88L51.46 424.44L50.47 423.99L49.47 423.52L48.47 423.05L47.48 422.56L46.49 422.07L45.5 421.57L44.53 421.06L43.57 420.55L42.62 420.03L41.69 419.51L40.77 418.99L39.88 418.46L38.86 417.89L37.91 417.47L37.03 417.22L36.22 417.11L35.46 417.15L34.78 417.32L34.16 417.63L33.6 418.06L33.1 418.61L32.66 419.28L32.29 420.05L31.97 420.93L31.71 421.9L31.52 422.95L31.38 424.09L31.3 425.31L31.27 426.6L31.3 427.95L31.39 429.35L31.53 430.81L31.72 432.32L31.97 433.86L32.27 435.44L32.62 437.05L33.02 438.67L33.47 440.31L33.97 441.96L34.52 443.61L35.12 445.26L35.76 446.9L36.45 448.52L37.19 450.12L37.97 451.69L38.8 453.22L39.67 454.72L40.58 456.16L41.54 457.56L42.54 458.89L43.57 460.16L44.65 461.36L45.44 462.16L46.23 462.93L47.03 463.66L47.82 464.36L48.62 465.02L49.42 465.65L50.22 466.24L51.02 466.8L51.81 467.32L52.61 467.81L53.4 468.27L54.19 468.69L54.97 469.07L55.75 469.42L56.53 469.73L57.3 470.01L58.07 470.25L58.83 470.46L59.58 470.63L60.32 470.77L61.06 470.87L61.78 470.94L62.5 470.96L63.21 470.96L63.9 470.92L64.59 470.84L65.26 470.72L65.92 470.57L66.57 470.39L67.2 470.16L67.82 469.91L68.43 469.61L69.01 469.28L69.59 468.91L70.14 468.51L70.68 468.07L71.2 467.59L71.7 467.07L72.19 466.52L72.65 465.93L73.08 465.37L73.51 464.84L73.93 464.35L74.36 463.89L74.79 463.46L75.21 463.07L75.64 462.71L76.06 462.39L76.49 462.1L76.91 461.85L77.34 461.63L77.76 461.44L78.19 461.29L78.61 461.17L79.04 461.09L79.47 461.04L79.9 461.02L80.33 461.04L80.77 461.1L81.2 461.19L81.64 461.31L82.08 461.47L82.52 461.66L82.96 461.88L83.4 462.14L83.85 462.44L84.3 462.77L84.75 463.13L85.21 463.52L85.67 463.96L86.13 464.42L86.6 464.92L87.07 465.46L87.54 466.02L88.02 466.63L88.5 467.26L88.99 467.93L89.47 468.64L89.97 469.38L90.47 470.15L90.69 470.56L90.94 470.99L91.22 471.45L91.51 471.93L91.82 472.43L92.16 472.95L92.51 473.49L92.89 474.04L93.28 474.62L93.68 475.21L94.11 475.82L94.55 476.45L95 477.09L95.47 477.74L95.95 478.41L96.45 479.08L96.96 479.77L97.47 480.47L98 481.18L98.54 481.89L99.09 482.61L99.64 483.34L100.21 484.07L100.78 484.81L101.35 485.56L101.93 486.3L102.52 487.05L103.11 487.8L103.7 488.54L104.29 489.29L104.89 490.04L105.48 490.78L106.08 491.52L106.68 492.26L107.27 492.99L107.86 493.71L108.45 494.43L109.04 495.14L109.62 495.84L110.19 496.53L110.79 497.24L111.37 497.94L111.94 498.64L112.5 499.34L113.05 500.03L113.59 500.71L114.12 501.38L114.63 502.05L115.13 502.71L115.62 503.36L116.1 504L116.56 504.63L117.01 505.25L117.45 505.85L117.87 506.45L118.27 507.03L118.66 507.6L119.04 508.16L119.4 508.7L119.74 509.23L120.06 509.74L120.37 510.24L120.66 510.72L120.94 511.19L121.19 511.63L121.43 512.06L121.65 512.47L121.85 512.86L122.03 513.24L122.18 513.59L122.32 513.92L122.44 514.23L122.54 514.52L122.62 514.78L122.67 515.02L122.7 515.24L122.71 515.44L122.7 515.61L122.66 515.75L122.6 515.87L122.5 515.94L122.4 516.01L122.29 516.07L122.17 516.12L122.05 516.17L121.93 516.2L121.8 516.23L121.66 516.26L121.52 516.27L121.38 516.28L121.23 516.28L121.08 516.28L120.92 516.26L120.76 516.25L120.6 516.22L120.43 516.19L120.26 516.15L120.09 516.11L119.92 516.06L119.74 516L119.56 515.94L119.38 515.87L119.19 515.8L119.01 515.72L118.82 515.63L118.63 515.54L118.44 515.44L118.25 515.34L118.05 515.24L117.86 515.13L117.67 515.01L117.47 514.89L117.28 514.76L117.08 514.63L116.89 514.5L116.69 514.36L116.5 514.21L116.3 514.07L116.11 513.91L115.92 513.76L115.56 513.47L115.09 513.18L114.53 512.89L113.88 512.59L113.15 512.31L112.33 512.02L111.45 511.74L110.49 511.46L109.48 511.18L108.41 510.91L107.29 510.65L106.12 510.39L104.92 510.14L103.69 509.9L102.43 509.67L101.14 509.44L99.84 509.23L98.54 509.03L97.23 508.84L95.92 508.66L94.61 508.49L93.33 508.34L92.06 508.21L90.81 508.09L89.6 507.98L88.42 507.89L87.29 507.82L86.2 507.77L85.17 507.74L84.2 507.73L83.29 507.73L82.45 507.76L81.7 507.81L81.02 507.88L80.43 507.98L79.94 508.1L79.54 508.24L79.25 508.41L79.07 508.61L79.01 508.84L79.04 509.2L79.13 509.63L79.27 510.09L79.47 510.61L79.71 511.17L80 511.77L80.34 512.4L80.72 513.07L81.15 513.78L81.61 514.51L82.11 515.27L82.64 516.05L83.2 516.86L83.8 517.68L84.42 518.52L85.06 519.37L85.73 520.24L86.42 521.11L87.12 521.98L87.84 522.86L88.58 523.73L89.32 524.61L90.07 525.47L90.83 526.33L91.6 527.18L92.36 528.01L93.13 528.82L93.89 529.62L94.64 530.39L95.39 531.14L96.13 531.86L96.85 532.54L97.56 533.2L98.25 533.82L98.93 534.4L99.58 534.94L100.21 535.43L100.81 535.88L101.38 536.27L101.92 536.62L102.79 537.08L103.67 537.52L104.57 537.93L105.49 538.32L106.41 538.69L107.35 539.04L108.3 539.36L109.25 539.65L110.21 539.92L111.18 540.17L112.16 540.39L113.13 540.59L114.11 540.77L115.09 540.92L116.07 541.05L117.04 541.15L118.01 541.23L118.98 541.28L119.94 541.31L120.89 541.32L121.84 541.3L122.77 541.26L123.69 541.19L124.6 541.1L125.49 540.98L126.37 540.84L127.24 540.67L128.08 540.48L128.9 540.27L129.71 540.03L130.49 539.76L131.24 539.47L131.98 539.16L132.68 538.82L133.36 538.46L134.01 538.07L134.62 537.65L135.21 537.22L135.76 536.75L136.28 536.26L136.66 535.91L137.04 535.57L137.41 535.27L137.78 534.99L138.15 534.74L138.53 534.52L138.92 534.33L139.32 534.18L139.73 534.05L140.16 533.97L140.6 533.92L141.06 533.9L141.55 533.93L142.06 533.99L142.6 534.1L143.17 534.25L143.77 534.44L144.4 534.68L145.08 534.96L145.79 535.3L146.54 535.68L147.34 536.11L148.19 536.59L149.09 537.12L150.04 537.71L151.04 538.36L152.1 539.06L153.23 539.81L154.41 540.63L155.66 541.51L156.97 542.44L158.36 543.44L159.81 544.51L161.34 545.64L162.95 546.83L164.64 548.09L166.41 549.43L168.26 550.83L170.21 552.3L172.24 553.85L173.5 554.79L174.75 555.74L175.99 556.68L177.22 557.61L178.43 558.54L179.63 559.46L180.82 560.38L181.99 561.28L183.15 562.18L184.29 563.06L185.4 563.93L186.5 564.79L187.58 565.64L188.63 566.47L189.66 567.29L190.67 568.09L191.65 568.88L192.6 569.64L193.53 570.39L194.43 571.12L195.3 571.83L196.13 572.52L196.94 573.18L197.71 573.82L198.45 574.44L199.15 575.03L199.82 575.6L200.44 576.14L201.04 576.65L201.59 577.14L202.1 577.59L202.57 578.02L202.99 578.41L203.37 578.77L203.71 579.1L204 579.4L204.25 579.66L204.44 579.88L204.59 580.07L204.69 580.22L204.9 580.54L205.14 580.82L205.41 581.06L205.71 581.27L206.03 581.43L206.39 581.56L206.76 581.65L207.15 581.71L207.57 581.73L208 581.72L208.44 581.68L208.9 581.61L209.37 581.51L209.85 581.38L210.34 581.23L210.83 581.05L211.32 580.84L211.82 580.61L212.31 580.36L212.8 580.09L213.29 579.79L213.77 579.48L214.24 579.15L214.7 578.8L215.15 578.44L215.58 578.06L216 577.66L216.39 577.26L216.77 576.84L217.13 576.41L217.46 575.97L217.76 575.53L218.04 575.07L218.28 574.61L218.5 574.15L218.67 573.68L218.82 573.21L218.92 572.73L218.98 572.26L219.01 571.78L218.99 571.59L218.95 571.39L218.88 571.17L218.79 570.95L218.67 570.72L218.53 570.47L218.36 570.22L218.17 569.95L217.96 569.68L217.72 569.4L217.46 569.11L217.18 568.81L216.87 568.51L216.55 568.2L216.2 567.88L215.84 567.55L215.46 567.22L215.05 566.89L214.63 566.54L214.19 566.2L213.74 565.85L213.26 565.49L212.78 565.13L212.27 564.77L211.75 564.4L211.22 564.03L210.67 563.66L210.1 563.29L209.53 562.91L208.94 562.53L208.34 562.16L207.73 561.78L207.1 561.4L206.47 561.02L205.82 560.64L205.17 560.26L204.5 559.89L203.83 559.51L203.15 559.14L202.46 558.77L201.25 558.15L200.1 557.56L199.01 557L197.98 556.47L197 555.95L196.08 555.46L195.21 554.98L194.39 554.52L193.61 554.07L192.89 553.63L192.21 553.2L191.58 552.78L190.99 552.36L190.45 551.94L189.94 551.52L189.47 551.09L189.04 550.67L188.64 550.23L188.28 549.78L187.95 549.32L187.64 548.84L187.37 548.35L187.13 547.84L186.91 547.3L186.71 546.74L186.54 546.15L186.39 545.54L186.25 544.89L186.14 544.21L186.04 543.49L185.96 542.73L185.89 541.94L185.83 541.09L185.78 540.21L185.74 539.27L185.7 538.29L185.67 537.25L185.65 536.16L185.62 535.01L185.6 533.8L185.28 516.92L200.87 516.92L202.39 516.91L203.88 516.86L205.36 516.79L206.81 516.68L208.25 516.54L209.67 516.37L211.06 516.17L212.44 515.93L213.81 515.67L215.15 515.37L216.48 515.04L217.8 514.67L219.09 514.28L220.38 513.85L221.65 513.38L222.9 512.88L224.14 512.35L225.37 511.79L226.59 511.18L227.8 510.55L228.99 509.88L230.17 509.17L231.34 508.43L232.51 507.66L233.66 506.84L234.8 506L235.94 505.11L237.07 504.19L238.19 503.23L239.3 502.24L240.41 501.2L241.51 500.13L242.61 499.03L243.7 497.88L244.79 496.7L245.88 495.47L246.96 494.21L248.04 492.91L249.11 491.58L250.19 490.2L250.66 489.57L251.14 488.94L251.62 488.33L252.09 487.71L252.56 487.11L253.03 486.51L253.5 485.93L253.96 485.35L254.42 484.78L254.88 484.22L255.33 483.67L255.78 483.13L256.22 482.61L256.65 482.09L257.08 481.59L257.5 481.11L257.91 480.63L258.31 480.17L258.71 479.73L259.09 479.3L259.47 478.88L259.84 478.49L260.19 478.1L260.54 477.74L260.87 477.4L261.2 477.07L261.51 476.76L261.8 476.47L262.09 476.2L262.36 475.96L262.61 475.73L262.85 475.52L263.08 475.34L263.29 475.18L263.48 475.04L263.66 474.93L263.82 474.84L263.96 474.78L264.08 474.74L264.19 474.73L264.29 474.74L264.43 474.78L264.59 474.84L264.78 474.93L264.99 475.04L265.23 475.18L265.49 475.34L265.77 475.52L266.08 475.73L266.41 475.95L266.76 476.2L267.13 476.46L267.52 476.75L267.92 477.05L268.35 477.38L268.8 477.72L269.26 478.08L269.74 478.45L270.24 478.85L270.75 479.25L271.27 479.68L271.81 480.11L272.37 480.56L272.94 481.03L273.52 481.51L274.11 482L274.71 482.5L275.32 483.01L275.95 483.54L276.58 484.07L277.22 484.62L277.87 485.17L278.53 485.73L279.19 486.3L279.86 486.87L280.53 487.46L281.21 488.05L281.9 488.64L282.58 489.24L283.28 489.85L285.08 491.45L286.86 493.01L288.63 494.51L290.38 495.95L292.12 497.34L293.85 498.69L295.57 499.97L297.28 501.21L298.98 502.4L300.67 503.54L302.37 504.64L304.06 505.68L305.75 506.68L307.44 507.63L309.14 508.53L310.84 509.39L312.54 510.21L314.26 510.98L315.98 511.71L317.72 512.4L319.47 513.04L321.23 513.65L323.01 514.21L324.81 514.73L326.62 515.22L328.46 515.67L330.33 516.08L332.21 516.45L334.13 516.79L336.07 517.09L338.04 517.36L340.05 517.6L342.08 517.8L344.15 517.96L346.26 518.1L348.41 518.21L350.59 518.28L352.82 518.33L355.09 518.34L357.41 518.33L359.53 518.29L361.61 518.23L363.64 518.15L365.63 518.05L367.58 517.92L369.49 517.76L371.37 517.58L373.22 517.37L375.03 517.13L376.82 516.86L378.57 516.57L380.31 516.24L382.02 515.88L383.72 515.49L385.39 515.06L387.06 514.6L388.7 514.1L390.34 513.57L391.97 513L393.6 512.4L395.22 511.75L396.84 511.06L398.46 510.34L400.08 509.57L401.71 508.76L403.35 507.91L405 507.01L406.66 506.06L408.33 505.07L410.02 504.04L411.73 502.95L413.47 501.82L415.22 500.64L417 499.41L418.81 498.12L420.65 496.79L422.52 495.4L424.43 493.95L426.37 492.46L428.36 490.9L431.27 488.5L434.13 486L436.94 483.4L439.7 480.7L442.41 477.91L445.06 475.03L447.66 472.06L450.2 469.01L452.68 465.88L455.1 462.68L457.46 459.39L459.76 456.04L461.99 452.62L464.16 449.13L466.26 445.59L468.29 441.98L470.26 438.32L472.15 434.6L473.98 430.84L475.72 427.03L477.4 423.18L479 419.29L480.52 415.36L481.96 411.4L483.33 407.41L484.61 403.39L485.81 399.35L486.92 395.28L487.95 391.2L488.89 387.1L489.75 383L490.51 378.88L491.19 374.76L491.77 370.63L492.26 366.51L492.66 362.39L492.96 358.28L493.16 354.18L493.26 350.09L493.26 346.02L493.2 343.43L493.11 340.87L493 338.35L492.86 335.86L492.69 333.4L492.49 330.97L492.26 328.58L492.01 326.21L491.72 323.86L491.4 321.54L491.06 319.25L490.68 316.98L490.27 314.73L489.83 312.5L489.36 310.29L488.85 308.09L488.32 305.92L487.75 303.76L487.14 301.61L486.5 299.47L485.83 297.35L485.12 295.23L484.38 293.13L483.6 291.03L482.78 288.94L481.93 286.85L481.04 284.77L480.11 282.68L479.14 280.6L478.14 278.52L477.1 276.44L476.02 274.35L474.89 272.26L473.73 270.17L472.53 268.07L471.29 265.95L470 263.84L468.68 261.7L467.31 259.56L465.9 257.41L464.97 256.05L463.95 254.63L462.84 253.14L461.64 251.6L460.37 249.99L459.02 248.34L457.6 246.64L456.11 244.9L454.56 243.11L452.96 241.3L451.3 239.45L449.59 237.58L447.83 235.68L446.03 233.77L444.2 231.84L442.34 229.9L440.44 227.96L438.53 226.02L436.59 224.08L434.64 222.15L432.68 220.24L430.71 218.33L428.74 216.45L426.77 214.59L424.81 212.76L422.86 210.97L420.93 209.21L419.01 207.49L417.12 205.82L415.25 204.2L413.42 202.63L411.62 201.12L409.87 199.67L408.16 198.29L406.5 196.98L404.89 195.75L403.34 194.59L401.86 193.52L400.44 192.54L399.09 191.65L398.74 191.41L398.42 191.17L398.13 190.92L397.87 190.67L397.63 190.41L397.43 190.14L397.25 189.87L397.11 189.58L397 189.27L396.92 188.95L396.88 188.61L396.88 188.26L396.91 187.88L396.98 187.49L397.09 187.07L397.24 186.62L397.43 186.15L397.66 185.66L397.93 185.13L398.25 184.57L398.61 183.98L399.02 183.36L399.48 182.7L399.98 182L400.53 181.27L401.13 180.49L401.78 179.68L402.49 178.82L403.24 177.91L404.05 176.96L404.92 175.96L405.84 174.92L406.81 173.82L407.85 172.67L408.94 171.46L410.09 170.2L411.3 168.88L412.58 167.51L413.91 166.07L415.31 164.57L417.49 162.3L419.63 160.12L421.73 158.03L423.8 156.04L425.83 154.15L427.83 152.34L429.8 150.63L431.74 149.01L433.64 147.49L435.52 146.05L437.37 144.71L439.19 143.46L440.99 142.3L442.76 141.23L444.5 140.25L446.22 139.37L447.92 138.57L449.6 137.86L451.26 137.24L452.9 136.7L454.52 136.26L456.12 135.9L457.7 135.64L459.27 135.45L460.83 135.36L462.37 135.35L463.9 135.43L465.42 135.6L466.92 135.85L468.42 136.19L469.91 136.61L471.39 137.11L472.87 137.71L474.33 138.38L475.8 139.14L477.26 139.98L478.72 140.91L480.17 141.91L481.63 143L483.08 144.18L483.64 144.64L484.17 145.08L484.67 145.5L485.15 145.9L485.59 146.28L486.01 146.64L486.4 146.99L486.76 147.33L487.09 147.65L487.4 147.96L487.68 148.25L487.94 148.54L488.16 148.82L488.36 149.1L488.53 149.37L488.68 149.63L488.8 149.9L488.9 150.16L488.97 150.42L489.01 150.68L489.02 150.95L489.02 151.22L488.98 151.49L488.92 151.77L488.84 152.06L488.73 152.36L488.6 152.67L488.44 152.99L488.26 153.32L488.05 153.67L487.82 154.03L487.56 154.42L487.28 154.82L486.98 155.24L486.65 155.68L486.3 156.14L485.93 156.63L485.53 157.14L485.11 157.68L484.67 158.24L483.91 159.14L483.12 160.02L482.28 160.9L481.42 161.77L480.52 162.62L479.59 163.47L478.63 164.31L477.64 165.13L476.63 165.94L475.6 166.73L474.54 167.51L473.46 168.27L472.36 169.02L471.25 169.74L470.12 170.45L468.98 171.14L467.82 171.8L466.66 172.45L465.49 173.07L464.31 173.67L463.13 174.24L461.94 174.79L460.75 175.32L459.57 175.81L458.38 176.28L457.2 176.72L456.02 177.13L454.86 177.51L453.7 177.86L452.55 178.17L451.41 178.45L450.29 178.7L449.19 178.91L448.1 179.09L447.03 179.23L445.98 179.33L444.96 179.39L443.96 179.42L442.98 179.4L442.04 179.34L439.84 179.21L437.73 179.09L435.7 178.98L433.75 178.88L431.89 178.78L430.11 178.7L428.4 178.62L426.77 178.55L425.22 178.49L423.73 178.43L422.32 178.39L420.98 178.36L419.71 178.33L418.5 178.32L417.35 178.31L416.27 178.31L415.25 178.32L414.29 178.34L413.38 178.38L412.53 178.42L411.73 178.47L410.99 178.53L410.29 178.6L409.65 178.68L409.05 178.77L408.49 178.88L407.98 178.99L407.51 179.11L407.08 179.25L406.69 179.39L406.34 179.55L406.02 179.71L405.73 179.89L405.47 180.08L405.25 180.28L405.05 180.49L404.88 180.71L404.73 180.95L404.6 181.19L404.5 181.45L404.46 181.64L404.45 181.83L404.46 182.02L404.5 182.22L404.56 182.42L404.65 182.62L404.76 182.83L404.89 183.04L405.04 183.25L405.22 183.46L405.42 183.68L405.64 183.89L405.88 184.11L406.15 184.33L406.43 184.55L406.74 184.78L407.06 185L407.41 185.22L407.77 185.45L408.15 185.67L408.56 185.89L408.98 186.12L409.42 186.34L409.88 186.56L410.36 186.79L410.85 187.01L411.36 187.23L411.89 187.45L412.43 187.66L413 187.88L413.57 188.09L414.17 188.3L414.78 188.51L415.4 188.72L416.04 188.92L416.69 189.12L417.36 189.32L418.04 189.51L418.74 189.7L419.45 189.89L423.39 190.83L427.31 191.55L431.23 192.05L435.11 192.34L438.97 192.43L442.78 192.33L446.54 192.04L450.24 191.58L453.87 190.95L457.43 190.16L460.89 189.22L464.27 188.13L467.53 186.9L470.69 185.55L473.73 184.07L476.63 182.49L479.4 180.79L482.02 179L484.48 177.12L486.78 175.16L488.91 173.13L490.85 171.03L492.6 168.88L494.15 166.67L495.49 164.43L496.62 162.15L497.52 159.84L498.19 157.52L498.61 155.19L498.78 152.85L498.68 150.52L498.32 148.21L497.68 145.92L496.76 143.66L495.53 141.43L494.01 139.26L492.16 137.13L490 135.07L487.51 133.08L484.67 131.16L483.5 130.44L482.32 129.76L481.14 129.11L479.95 128.5L478.75 127.92L477.55 127.37L476.35 126.87L475.14 126.4L473.92 125.96L472.7 125.56L471.48 125.2L470.25 124.87L469.01 124.57L467.77 124.32L466.53 124.09L465.28 123.91L464.03 123.76L462.78 123.64L461.52 123.56L460.25 123.52L458.99 123.51L457.72 123.53L456.44 123.6L455.17 123.7L453.89 123.83L452.61 124L451.32 124.2L450.03 124.44L448.74 124.72L447.45 125.03L446.15 125.38L444.85 125.76L443.55 126.18L442.25 126.64L440.95 127.13L439.64 127.65L438.33 128.21L437.03 128.81L435.71 129.44L434.4 130.11L433.28 130.7L432.08 131.39L430.79 132.2L429.44 133.11L428.01 134.11L426.52 135.2L424.97 136.37L423.38 137.62L421.74 138.94L420.06 140.33L418.35 141.78L416.61 143.28L414.85 144.82L413.08 146.41L411.3 148.04L409.51 149.69L407.73 151.37L405.96 153.06L404.2 154.77L402.47 156.48L400.76 158.2L399.08 159.9L397.44 161.6L395.85 163.28L394.31 164.93L392.82 166.56L391.4 168.14L390.04 169.69L388.76 171.19L387.56 172.64L386.44 174.02L385.42 175.35L384.5 176.6L383.68 177.77L382.97 178.86L382.37 179.86L381.9 180.77L381.55 181.57L381.34 182.27L381.27 182.86L381.27 183.01L381.26 183.17L381.25 183.31L381.23 183.46L381.21 183.6L381.19 183.73L381.16 183.86L381.13 183.99L381.09 184.11L381.05 184.23L381.01 184.34L380.96 184.44L380.91 184.54L380.86 184.64L380.8 184.73L380.74 184.82L380.68 184.89L380.61 184.97L380.54 185.04L380.47 185.1L380.4 185.16L380.33 185.21L380.25 185.25L380.17 185.29L380.09 185.32L380.01 185.34L379.92 185.36L379.84 185.38L379.75 185.38L379.66 185.38L379.57 185.37L379.48 185.36L379.39 185.33L379.29 185.3L379.2 185.27L379.1 185.22L379.01 185.17L378.91 185.11L378.82 185.04L378.72 184.97L378.35 184.73L377.88 184.49L377.33 184.26L376.69 184.02L375.98 183.79L375.18 183.55L374.31 183.32L373.37 183.09L372.36 182.86L371.29 182.63L370.15 182.41L368.94 182.19L367.68 181.97L366.36 181.75L364.99 181.54L363.56 181.33L362.09 181.12L360.57 180.92L359.01 180.72L357.41 180.53L355.77 180.34L354.09 180.15L352.38 179.98L350.64 179.8L348.87 179.63L347.08 179.47L345.26 179.32L343.43 179.17L341.58 179.02L339.71 178.88L337.83 178.75L335.94 178.63L334.05 178.52L332.15 178.41L330.25 178.31L328.35 178.22L326.45 178.13L324.57 178.06L322.69 177.99L320.82 177.93L318.83 177.92L316.88 177.94L314.96 177.99L313.07 178.07L311.21 178.19L309.37 178.34L307.56 178.52L305.77 178.74L303.99 179L302.23 179.3L300.48 179.63L298.75 180.01L297.02 180.43L295.3 180.89L293.59 181.4L291.87 181.95L290.16 182.54L288.44 183.18L286.72 183.88L284.99 184.62L283.24 185.41L281.49 186.25L279.72 187.14L277.93 188.09L276.13 189.09L274.3 190.14L272.45 191.26L270.57 192.43L268.66 193.66L266.73 194.95L264.75 196.29L262.74 197.71L260.7 199.18L258.61 200.72L256.48 202.32L254.3 203.99L252.08 205.72L249.8 207.53L247.48 209.4L245.1 211.34L243.88 212.4L242.6 213.57L241.29 214.85L239.93 216.24L238.53 217.71L237.09 219.28L235.63 220.93L234.14 222.66L232.62 224.45L231.09 226.32L229.54 228.24L227.98 230.22L226.41 232.25L224.84 234.32L223.27 236.42L221.71 238.56L220.15 240.72L218.61 242.9L217.09 245.1L215.59 247.3L214.11 249.5L212.66 251.7L211.24 253.88L209.86 256.05L208.53 258.2L207.23 260.32L205.99 262.41L204.8 264.46L203.66 266.46L202.59 268.41L201.58 270.3L200.64 272.13L199.78 273.89L198.99 275.57L198.28 277.18L197.66 278.69L197.13 280.12L196.68 281.45L196.34 282.67L196.1 283.78L195.95 284.34L195.74 284.78L195.48 285.08L195.17 285.25L194.81 285.31L194.41 285.24L193.95 285.07L193.46 284.79L192.93 284.4L192.37 283.92L191.77 283.34L191.14 282.67L190.49 281.91L189.81 281.08L189.11 280.16L188.39 279.18L187.65 278.12L186.9 277L186.13 275.83L185.36 274.59L184.58 273.31L183.8 271.98L183.02 270.61L182.24 269.2L181.46 267.75L180.7 266.28L179.94 264.78L179.19 263.27L178.46 261.74L177.75 260.19L177.06 258.64L176.4 257.09L175.76 255.54L175.15 253.99L174.57 252.46L174.02 250.94L173.51 249.44L173.04 247.96L172.62 246.51L172.24 245.1L171.81 243.42L171.45 241.71L171.15 239.97L170.91 238.2L170.73 236.4L170.61 234.58L170.54 232.74L170.53 230.87L170.58 228.98L170.68 227.08L170.84 225.16L171.06 223.23L171.32 221.29L171.64 219.34L172.01 217.38L172.43 215.41L172.91 213.44L173.43 211.46L174 209.49L174.62 207.52L175.29 205.55L176.01 203.58L176.77 201.63L177.57 199.68L178.43 197.74L179.32 195.81L180.26 193.9L181.24 192.01L182.27 190.14L183.33 188.28L184.44 186.45L185.58 184.64L186.77 182.85L187.99 181.1L189.25 179.37L190.55 177.68L191.88 176.02L193.25 174.39L194.66 172.8L196.1 171.25L196.75 170.62L197.41 169.98L198.08 169.33L198.75 168.69L199.44 168.04L200.13 167.39L200.82 166.74L201.52 166.08L202.23 165.43L202.94 164.79L203.65 164.14L204.36 163.5L205.08 162.86L205.79 162.22L206.5 161.59L207.21 160.97L207.92 160.35L208.62 159.74L209.32 159.14L210.02 158.55L210.71 157.97L211.39 157.4L212.06 156.84L212.73 156.29L213.39 155.75L214.03 155.23L214.67 154.73L215.29 154.24L215.9 153.76L216.5 153.3L217.08 152.86L217.65 152.44L218.2 152.03L218.74 151.65L219.26 151.29L219.76 150.94L220.24 150.62L220.7 150.33L221.13 150.05L221.55 149.8L222.75 149.16L224 148.56L225.31 148L226.67 147.47L228.09 146.98L229.55 146.53L231.06 146.12L232.61 145.75L234.2 145.41L235.84 145.11L237.51 144.85L239.22 144.62L240.97 144.44L242.75 144.29L244.56 144.18L246.4 144.1L248.26 144.07L250.16 144.07L252.07 144.1L254 144.18L255.96 144.29L257.93 144.43L259.92 144.62L261.91 144.84L263.93 145.1L265.95 145.39L267.97 145.72L270.01 146.09L272.04 146.49L274.08 146.93L276.11 147.41L278.15 147.92L280.18 148.47L282.2 149.06L284.22 149.68L286.22 150.33L288.21 151.03L290.19 151.75L292.15 152.52L294.09 153.32L297.66 154.83L301.17 156.29L304.61 157.7L307.99 159.07L311.3 160.39L314.55 161.66L317.72 162.88L320.83 164.06L323.87 165.19L326.84 166.27L329.74 167.31L332.57 168.29L335.33 169.23L338.01 170.12L340.62 170.96L343.16 171.75L345.62 172.49L348.01 173.18L350.32 173.83L352.56 174.42L354.71 174.96L356.79 175.45L358.79 175.89L360.71 176.28L362.55 176.62L364.31 176.91L365.98 177.15L367.58 177.33L369.09 177.47L370.51 177.55L371.85 177.58L373.11 177.56L374.28 177.48L375.36 177.35L376.36 177.17L377.27 176.94L378.08 176.65L378.81 176.31L379.45 175.92L380 175.47L380.48 175.03L380.94 174.6L381.37 174.17L381.76 173.76L382.13 173.36L382.47 172.97L382.77 172.58L383.05 172.21L383.3 171.84L383.51 171.49L383.7 171.14L383.85 170.8L383.98 170.48L384.08 170.15L384.14 169.84L384.18 169.54L384.18 169.24L384.16 168.95L384.1 168.67L384.01 168.4L383.9 168.13L383.75 167.87L383.57 167.62L383.36 167.37L383.13 167.13L382.86 166.9L382.56 166.67L382.23 166.45L381.87 166.24L381.47 166.03L381.05 165.82L380.6 165.63L380.11 165.43L379.6 165.25L379.05 165.06L378.48 164.89L377.87 164.71L377.23 164.54L376.56 164.38L375.86 164.22L375.45 164.15L375 164.06L374.5 163.93L373.95 163.78L373.35 163.61L372.71 163.4L372.03 163.18L371.31 162.93L370.55 162.65L369.75 162.35L368.91 162.03L368.04 161.69L367.13 161.32L366.19 160.94L365.22 160.54L364.21 160.11L363.18 159.67L362.12 159.21L361.03 158.73L359.91 158.24L358.77 157.73L357.61 157.21L356.43 156.67L355.22 156.12L354 155.55L352.75 154.97L351.49 154.38L350.22 153.78L348.93 153.17L347.63 152.55L346.32 151.92L344.99 151.28L343.66 150.63L342.32 149.98L340.97 149.32L339.62 148.65L338.26 147.98L336.9 147.3L335.54 146.62L334.18 145.93L332.16 144.93L330.21 143.95L328.32 143.02L326.49 142.13L324.71 141.27L322.99 140.45L321.32 139.66L319.7 138.9L318.13 138.18L316.59 137.49L315.1 136.83L313.64 136.2L312.22 135.6L310.83 135.03L309.47 134.49L308.14 133.98L306.83 133.49L305.53 133.03L304.26 132.59L303 132.18L301.75 131.79L300.52 131.42L299.28 131.07L298.06 130.74L296.83 130.44L295.6 130.15L294.36 129.88L293.12 129.63L291.87 129.39L290.6 129.17L289.32 128.96L288.02 128.77L286.7 128.6L285.35 128.43L283.97 128.28L282.57 128.13L281.13 128L279.66 127.87L278.15 127.76L276.59 127.65L273.5 127.43L270.45 127.27L267.47 127.15L264.53 127.08L261.65 127.06L258.82 127.1L256.04 127.18L253.3 127.31L250.62 127.49L247.97 127.73L245.38 128.01L242.82 128.35L240.3 128.74L237.83 129.19L235.39 129.69L232.99 130.24L230.63 130.85L228.3 131.51L226 132.23L223.74 133.01L221.5 133.84L219.3 134.73L217.12 135.68L214.97 136.69L212.85 137.75L210.74 138.87L208.66 140.06L206.61 141.3L204.57 142.6L202.55 143.97L200.54 145.39L198.55 146.88L196.58 148.43L194.62 150.04L192.67 151.72L190.73 153.45L188.8 155.26L186.88 157.12L184.96 159.06L183.05 161.05L181.71 162.54L180.4 164.05L179.12 165.58L177.87 167.13L176.66 168.7L175.48 170.29L174.33 171.9L173.21 173.53L172.13 175.18L171.08 176.85L170.06 178.54L169.08 180.25L168.13 181.98L167.21 183.72L166.33 185.49L165.48 187.27L164.66 189.08L163.88 190.9L163.13 192.74L162.41 194.59L161.73 196.47L161.08 198.36L160.47 200.27L159.89 202.2L159.35 204.14L158.84 206.1L158.36 208.08L157.92 210.08L157.52 212.09L157.15 214.12L156.81 216.16L156.51 218.22L156.24 220.29L156.01 222.39L155.82 224.49L155.66 226.61L155.53 228.75L155.44 230.9L155.39 233.07L155.37 235.25L155.38 236.87L155.42 238.47L155.48 240.03L155.56 241.58L155.67 243.1L155.81 244.6L155.97 246.08L156.16 247.54L156.38 248.99L156.63 250.42L156.91 251.84L157.22 253.24L157.56 254.64L157.94 256.03L158.34 257.41L158.78 258.78L159.26 260.15L159.77 261.52L160.32 262.89L160.9 264.26L161.52 265.64L162.18 267.01L162.88 268.4L163.62 269.79L164.4 271.19L165.22 272.6L166.08 274.02L166.99 275.45L167.94 276.91L168.93 278.37L169.97 279.86L171.05 281.37L172.18 282.89L173.36 284.45L174.59 286.02L175.86 287.62L177.19 289.25L178.56 290.91L179.99 292.61L181.46 294.33L181.93 294.88L182.4 295.44L182.85 296L183.29 296.57L183.73 297.13L184.15 297.7L184.57 298.27L184.97 298.84L185.36 299.42L185.75 300L186.12 300.58L186.49 301.17L186.84 301.75L187.18 302.34L187.51 302.93L187.84 303.53L188.15 304.13L188.45 304.73L188.74 305.33L189.02 305.93L189.29 306.54L189.55 307.15L189.79 307.77L190.03 308.38L190.26 309L190.47 309.62L190.67 310.24L190.87 310.87L191.05 311.5L191.22 312.13L191.37 312.77L191.52 313.4L191.66 314.04L191.78 314.68L191.89 315.33L191.99 315.98L192.08 316.63L192.16 317.28L192.23 317.94L192.28 318.59L192.58 321.81L192.97 325.03L193.43 328.24L193.97 331.45L194.59 334.65L195.29 337.83L196.05 341.01L196.89 344.17L197.81 347.3L198.79 350.42L199.84 353.52L200.95 356.59L202.14 359.63L203.38 362.64L204.69 365.61L206.06 368.56L207.49 371.46L208.98 374.32L210.52 377.14L212.13 379.91L213.78 382.64L215.49 385.31L217.25 387.93L219.06 390.5L220.92 393.01L222.82 395.45L224.78 397.84L226.77 400.16L228.81 402.41L230.89 404.59L233.01 406.7L235.17 408.73L237.37 410.68L239.6 412.56L241.87 414.35L244.17 416.05L246.51 417.67L248.87 419.2L251.27 420.64L253.69 421.98L255.54 422.99L257.28 423.97L258.91 424.93L260.42 425.85L261.82 426.75L263.11 427.61L264.29 428.45L265.35 429.26L266.3 430.03L267.13 430.79L267.85 431.51L268.46 432.2L268.95 432.87L269.33 433.51L269.59 434.12L269.73 434.71L269.76 435.27L269.68 435.8L269.47 436.31L269.16 436.79L268.72 437.25L268.17 437.68L267.5 438.08L266.72 438.46L265.82 438.82L264.8 439.15L263.66 439.45L262.41 439.73L261.04 439.99L259.55 440.23L257.94 440.44L256.21 440.62L254.36 440.79L252.4 440.93L250.31 441.05L248.11 441.15L245.79 441.22L243.34 441.28L240.78 441.31L238.1 441.32L236.09 441.32L234.16 441.33L232.32 441.34L230.55 441.36L228.86 441.38L227.24 441.41L225.69 441.45L224.2 441.5L222.78 441.56L221.41 441.62L220.1 441.7L218.85 441.78L217.64 441.88L216.48 441.99L215.37 442.12L214.29 442.25L213.25 442.4L212.25 442.57L211.28 442.75L210.34 442.95L209.42 443.16L208.52 443.39L207.64 443.64L206.78 443.9L205.93 444.19L205.09 444.49L204.26 444.82L203.43 445.16L202.6 445.53L201.77 445.92L200.93 446.33L200.08 446.77L199.22 447.22L198.34 447.71L197.45 448.22L196.54 448.75L195.6 449.31L194.63 449.9L193.63 450.52L192.6 451.16L191.82 451.69L191.05 452.22L190.3 452.75L189.56 453.28L188.84 453.81L188.13 454.34L187.44 454.87L186.75 455.4L186.09 455.93L185.43 456.47L184.8 457L184.17 457.54L183.56 458.08L182.96 458.62L182.38 459.17L181.81 459.72L181.26 460.27L180.71 460.82L180.19 461.38L179.67 461.93L179.17 462.5L178.69 463.06L178.21 463.63L177.75 464.2L177.31 464.78L176.88 465.36L176.46 465.95L176.05 466.54L175.66 467.13L175.28 467.73L174.92 468.33L174.57 468.94L174.23 469.56L173.9 470.18L173.59 470.8L173.3 471.44L173.01 472.07L172.74 472.72L172.48 473.37L172.24 474.02L171.75 475.27L171.29 476.48L170.86 477.66L170.45 478.81L170.07 479.93L169.73 481.02L169.4 482.08L169.11 483.11L168.84 484.11L168.61 485.09L168.4 486.05L168.22 486.98L168.06 487.89L167.94 488.78L167.84 489.65L167.77 490.51L167.73 491.34L167.72 492.16L167.74 492.97L167.78 493.76L167.86 494.54L167.96 495.3L168.09 496.06L168.25 496.81L168.44 497.55L168.66 498.28L168.9 499.01L169.18 499.73L169.49 500.45L169.82 501.17L170.18 501.89L170.58 502.6L171 503.32L171.45 504.04L171.93 504.77L172.44 505.5L172.98 506.23L173.55 506.97L174.15 507.72L174.78 508.48L175.27 509.08L175.74 509.64L176.18 510.18L176.6 510.7L176.99 511.2L177.36 511.67L177.71 512.12L178.03 512.55L178.33 512.97L178.61 513.37L178.86 513.75L179.09 514.12L179.3 514.48L179.49 514.82L179.65 515.15L179.79 515.48L179.9 515.79L179.99 516.1L180.06 516.4L180.11 516.7L180.13 517L180.14 517.29L180.12 517.58L180.07 517.88L180.01 518.17L179.92 518.47L179.81 518.77L179.68 519.08L179.52 519.39L179.34 519.71L179.15 520.04L178.92 520.38L178.68 520.73L178.42 521.09L178.13 521.47L177.82 521.86L177.49 522.27L177.14 522.7L176.77 523.14L176.37 523.6L176.09 523.95L175.82 524.29L175.56 524.64L175.3 524.99L175.06 525.34L174.83 525.69L174.6 526.04L174.39 526.39L174.18 526.74L173.99 527.1L173.81 527.46L173.63 527.81L173.47 528.17L173.31 528.53L173.17 528.9L173.03 529.26L172.91 529.62L172.79 529.99L172.69 530.36L172.59 530.73L172.51 531.1L172.44 531.47L172.37 531.84L172.32 532.21L172.27 532.59L172.24 532.96L172.22 533.34L172.2 533.72L172.2 534.1L172.21 534.48L172.23 534.87L172.26 535.25L172.3 535.64L172.35 536.02L172.41 536.41L172.48 536.8L172.56 537.19L172.65 537.59L172.76 537.98L172.87 538.37L173.01 538.86L173.13 539.32L173.23 539.75L173.32 540.15L173.39 540.52L173.45 540.87L173.48 541.18L173.5 541.46L173.5 541.71L173.47 541.93L173.43 542.12L173.36 542.28L173.27 542.4L173.16 542.49L173.02 542.55L172.86 542.58L172.68 542.57L172.46 542.52L172.22 542.44L171.96 542.33L171.66 542.18L171.34 541.99L170.99 541.77L170.6 541.51L170.19 541.22L169.75 540.88L169.27 540.51L168.76 540.1L168.22 539.65L167.64 539.16L167.02 538.64L166.38 538.07L165.69 537.46L164.97 536.81L164.21 536.12L163.41 535.39L162.58 534.62L161.7 533.8L160.78 532.95L159.83 532.04L157.08 529.47L154.47 527.02L151.99 524.69L149.63 522.48L147.41 520.38L145.3 518.39L143.32 516.51L141.46 514.73L139.71 513.05L138.08 511.46L136.55 509.97L135.14 508.56L133.82 507.24L132.61 506L131.5 504.83L130.48 503.74L129.56 502.72L128.73 501.77L127.99 500.88L127.33 500.04L126.76 499.27L126.27 498.54L125.85 497.86L125.51 497.23L125.24 496.64L125.04 496.08L124.91 495.56L124.84 495.07L124.83 494.61L124.88 494.16L124.99 493.74L125.15 493.33L125.36 492.94L125.62 492.55L125.92 492.17L126.26 491.79L126.65 491.4L127.07 491.01L127.52 490.61L128.01 490.2L128.32 489.96L128.61 489.7L128.9 489.44L129.18 489.17L129.46 488.89L129.72 488.61L129.98 488.31L130.23 488L130.46 487.68L130.7 487.36L130.92 487.02L131.13 486.68L131.34 486.32L131.54 485.96L131.72 485.58L131.91 485.2L132.08 484.8L132.24 484.4L132.4 483.98L132.54 483.56L132.68 483.13L132.81 482.68L132.94 482.23L133.05 481.77L133.16 481.29L133.25 480.81L133.34 480.32L133.42 479.81L133.5 479.3L133.56 478.77L133.61 478.24L133.66 477.7L133.7 477.14L133.73 476.58L133.75 476L133.77 475.41L133.77 474.82L133.77 474.21L133.76 473.59L133.74 472.97L133.7 472L133.63 471.01L133.53 469.99L133.4 468.96L133.24 467.9L133.06 466.82L132.85 465.73L132.62 464.63L132.36 463.52L132.08 462.41L131.78 461.29L131.47 460.17L131.13 459.05L130.78 457.94L130.41 456.83L130.03 455.74L129.63 454.66L129.22 453.59L128.8 452.54L128.37 451.52L127.93 450.51L127.48 449.54L127.03 448.59L126.57 447.67L126.1 446.79L125.64 445.95L125.17 445.14L124.7 444.38L124.23 443.67L123.76 443L123.3 442.38L122.83 441.82L122.38 441.31L121.93 440.86L121.48 440.48L121.05 440.15L120.63 439.9L120.21 439.71L119.81 439.6L119.42 439.56L119 439.59L118.55 439.69L118.08 439.85L117.58 440.07L117.06 440.34L116.53 440.67L115.97 441.04L115.41 441.46L114.83 441.93L114.24 442.44L113.64 442.99L113.03 443.57L112.42 444.18L111.81 444.82L111.2 445.49L110.6 446.19L110 446.9L109.4 447.64L108.82 448.38L108.24 449.14L107.69 449.91L107.14 450.69L106.62 451.47L106.11 452.25L105.63 453.02L105.17 453.79L104.74 454.56L104.34 455.31L103.96 456.05L103.63 456.77L103.32 457.47L103.06 458.15L102.83 458.8L102.65 459.43L102.51 460.02L102.42 460.58L102.38 461.1L102.38 461.59L102.44 462.02L102.56 462.42L103.27 464.43L103.9 466.27L104.43 467.92L104.87 469.4L105.22 470.7L105.49 471.84L105.68 472.81L105.8 473.62L105.83 474.27L105.79 474.76L105.69 475.11L105.51 475.31L105.27 475.36L104.96 475.28L104.6 475.06L104.18 474.71L103.7 474.22L103.17 473.62L102.59 472.89L101.96 472.04L101.29 471.08L100.57 470.01L99.82 468.84L99.03 467.56L98.2 466.18L97.35 464.7L96.46 463.14L95.55 461.48L94.61 459.74L93.65 457.92L92.68 456.02L91.68 454.05L90.68 452L89.66 449.89L88.63 447.72L87.6 445.49L86.57 443.2L85.53 440.86L84.5 438.48L83.47 436.04L82.72 434.32L82.02 432.68L81.35 431.11L80.71 429.62L80.12 428.21L79.56 426.87L79.03 425.6L78.55 424.4L78.09 423.26L77.67 422.19L77.29 421.17L76.93 420.21L76.61 419.31L76.33 418.46L76.07 417.66L75.85 416.91L75.66 416.2L75.5 415.54L75.37 414.91L75.28 414.33L75.21 413.78L75.17 413.26L75.16 412.78L75.18 412.32L75.22 411.89L75.3 411.48L75.4 411.09L75.53 410.72L75.68 410.37L75.86 410.03L76.07 409.71L76.3 409.39L76.56 409.07L76.84 408.76L77.14 408.46L77.47 408.15L77.82 407.84L78.2 407.52L78.59 407.19L79.01 406.86L79.84 406.17L80.63 405.41L81.41 404.6L82.15 403.73L82.87 402.8L83.57 401.81L84.23 400.77L84.87 399.68L85.49 398.53L86.07 397.34L86.63 396.09L87.16 394.8L87.67 393.46L88.14 392.07L88.59 390.64L89.01 389.17L89.4 387.66L89.76 386.11L90.09 384.53L90.39 382.9L90.66 381.24L90.9 379.55L91.11 377.82L91.29 376.07L91.44 374.29L91.56 372.47L91.65 370.63L91.7 368.77L91.73 366.88L91.72 364.97L91.68 363.04L91.61 361.09L91.5 359.12L91.36 357.14L91.19 355.14L90.99 353.13L90.75 351.1L90.48 349.07L90.17 347.02L89.83 344.97L89.63 343.94L89.43 342.97L89.21 342.05L88.98 341.18L88.74 340.37L88.48 339.61L88.22 338.9L87.94 338.25L87.65 337.65L87.35 337.11L87.03 336.62L86.7 336.18L86.35 335.8L86 335.47L85.63 335.19L85.24 334.96L84.84 334.79L84.42 334.67L83.99 334.61L83.55 334.59L83.09 334.63L82.61 334.73L82.12 334.87L81.61 335.07L81.08 335.32L80.54 335.62L79.98 335.97L79.4 336.38L78.81 336.84L78.2 337.35L77.57 337.92L76.92 338.53L76.26 339.2L75.57 339.92L74.87 340.69L74.15 341.51L73.4 342.39L72.64 343.31L71.86 344.29L71.06 345.32L70.52 346.05L70.01 346.75L69.52 347.43L69.05 348.1L68.61 348.75L68.18 349.38L67.78 349.99L67.4 350.59L67.04 351.18L66.7 351.76L66.39 352.33L66.09 352.9L65.81 353.46L65.55 354.01L65.31 354.56L65.09 355.11L64.88 355.66L64.7 356.21L64.53 356.76L64.38 357.32L64.24 357.88L64.12 358.45L64.02 359.03L63.94 359.62L63.86 360.23L63.81 360.84L63.76 361.47L63.74 362.12L63.72 362.78L63.72 363.47L63.73 364.17L63.76 364.9L63.8 365.65L63.85 366.42L63.91 367.23L63.98 368.06L64.06 368.92L64.16 369.81L64.26 370.73L64.38 371.69L64.54 373.03L64.68 374.31L64.8 375.52L64.91 376.66L65.01 377.74L65.08 378.76L65.14 379.71L65.18 380.59L65.21 381.41L65.22 382.17L65.21 382.86L65.19 383.49L65.15 384.05L65.09 384.54L65.02 384.98L64.93 385.34L64.83 385.64L64.71 385.88L64.57 386.05L64.42 386.15L64.25 386.19L64.06 386.17L63.86 386.08L63.65 385.92L63.41 385.7L63.16 385.41L62.9 385.06L62.62 384.64L62.32 384.16L62.01 383.61L61.68 383L61.33 382.31L60.97 381.57L60.6 380.76L60.21 379.88L59.8 378.94L59.38 377.93L58.94 376.85L58.48 375.71L58.01 374.51L57.58 373.26L57.18 371.95L56.81 370.59L56.47 369.17L56.17 367.71L55.9 366.2L55.66 364.66L55.46 363.08L55.28 361.47L55.14 359.84L55.03 358.18L54.95 356.51L54.89 354.83L54.87 353.14L54.87 351.45L54.9 349.76L54.97 348.08L55.05 346.41L55.17 344.75L55.31 343.12L55.48 341.51L55.67 339.93L55.89 338.39L56.14 336.88L56.41 335.42L56.7 334L57.02 332.64L57.36 331.34L57.72 330.09L58.1 328.91L58.51 327.8L58.94 326.77L59.39 325.82L59.86 324.95L60.36 324.17L60.87 323.48L61.4 322.89L61.95 322.41L62.52 322.03L63.11 321.76L63.33 321.67L63.56 321.57L63.81 321.45L64.06 321.31L64.33 321.16L64.61 320.99L64.9 320.81L65.21 320.61L65.52 320.4L65.83 320.18L66.16 319.95L66.5 319.7L66.84 319.44L67.19 319.17L67.55 318.88L67.92 318.59L68.29 318.29L68.66 317.97L69.04 317.65L69.43 317.32L69.82 316.98L70.21 316.63L70.61 316.27L71.01 315.91L71.41 315.54L71.81 315.16L72.22 314.78L72.63 314.39L73.03 314L73.44 313.6L73.85 313.2L74.25 312.79L74.66 312.38L75.06 311.97L75.46 311.55L75.86 311.13L76.26 310.71L76.65 310.29L77.04 309.87L77.42 309.45L77.94 308.85L78.44 308.25L78.92 307.66L79.38 307.07L79.83 306.48L80.26 305.89L80.68 305.31L81.08 304.72L81.47 304.13L81.84 303.54L82.19 302.95L82.54 302.35L82.87 301.75L83.18 301.14L83.49 300.52L83.78 299.89L84.05 299.25L84.32 298.61L84.58 297.95L84.82 297.27L85.05 296.59L85.28 295.89L85.49 295.17L85.69 294.44L85.89 293.68L86.07 292.91L86.25 292.12L86.42 291.31L86.58 290.48L86.73 289.62L86.87 288.74L87.01 287.83L87.15 286.9L87.27 285.94L87.39 284.96L87.51 283.94L87.62 282.89L87.72 281.81L87.82 280.7L87.92 279.56L87.97 278.77L88.01 277.99L88.05 277.22L88.08 276.46L88.12 275.7L88.14 274.96L88.17 274.22L88.19 273.5L88.21 272.79L88.22 272.09L88.23 271.4L88.24 270.73L88.24 270.07L88.24 269.43L88.24 268.8L88.23 268.2L88.22 267.6L88.2 267.03L88.18 266.47L88.16 265.93L88.14 265.42L88.11 264.92L88.07 264.44L88.04 263.99L88 263.56L87.95 263.15L87.91 262.76L87.86 262.4L87.8 262.07L87.74 261.76L87.68 261.47L87.62 261.22L87.55 260.99L87.48 260.79L87.4 260.62L87.32 260.48L87.24 260.37L87.15 260.28L87.06 260.24L86.97 260.22L86.86 260.23L86.73 260.26L86.58 260.3L86.4 260.36L86.2 260.44L85.99 260.54L85.75 260.65L85.49 260.78L85.21 260.92L84.91 261.08L84.6 261.26L84.27 261.44L83.92 261.65L83.55 261.86L83.17 262.09L82.77 262.34L82.36 262.59L81.93 262.86L81.49 263.14L81.04 263.43L80.58 263.73L80.1 264.04L79.61 264.37L79.11 264.7L78.6 265.04L78.08 265.4L77.55 265.76L77.01 266.13L76.47 266.51L75.92 266.9L75.36 267.29L74.79 267.69L74.22 268.1L73.64 268.52L73.06 268.94L72.48 269.36L71.89 269.8L71.3 270.23L70.7 270.67L70.11 271.12L55.79 281.67L57.7 262.68L57.89 260.61L58.09 258.63L58.31 256.72L58.53 254.89L58.76 253.14L59.01 251.46L59.27 249.86L59.55 248.33L59.84 246.87L60.15 245.48L60.47 244.16L60.82 242.91L61.19 241.72L61.58 240.59L61.99 239.53L62.42 238.52L62.88 237.58L63.37 236.69L63.88 235.86L64.42 235.08L64.99 234.35L65.59 233.68L66.22 233.05L66.88 232.48L67.58 231.95L68.31 231.46L69.08 231.02L69.89 230.62L70.73 230.26L71.61 229.95L72.53 229.66L73.5 229.42L74.5 229.21L75.55 229.03L76.65 228.88L77.79 228.77L78.98 228.68L80.21 228.62L81.5 228.58L82.83 228.57L84.18 228.56L85.49 228.51L86.78 228.43L88.03 228.31L89.26 228.16L90.45 227.98L91.63 227.76L92.77 227.51L93.89 227.22L94.98 226.9L96.04 226.53L97.08 226.13L98.1 225.69L99.09 225.21L100.06 224.7L101.01 224.14L101.94 223.54L102.84 222.9L103.72 222.22L104.59 221.49L105.43 220.73L106.25 219.92L107.06 219.06L107.85 218.17L108.62 217.22L109.37 216.23L110.11 215.2L110.83 214.11L111.54 212.99L112.23 211.81L112.9 210.58L113.57 209.31L114.22 207.98L114.86 206.61L115.49 205.18L116.1 203.71L116.71 202.18L117.3 200.6L117.89 198.96L118.47 197.27L118.93 195.96L119.36 194.7L119.77 193.49L120.14 192.34L120.49 191.25L120.81 190.21L121.1 189.22L121.36 188.29L121.59 187.41L121.79 186.59L121.96 185.81L122.1 185.09L122.21 184.42L122.29 183.8L122.34 183.24L122.36 182.72L122.34 182.25L122.3 181.83L122.23 181.46L122.12 181.14L121.99 180.87L121.82 180.65L121.63 180.47L121.4 180.34L121.14 180.25L120.85 180.21L120.52 180.22L120.17 180.27L119.78 180.37L119.36 180.51L118.91 180.7L118.43 180.92L117.91 181.2L117.36 181.51L116.78 181.87L116.16 182.26L115.52 182.7L114.84 183.18L114.12 183.7L113.38 184.26L113.09 184.5L112.79 184.73L112.49 184.96L112.18 185.19L111.86 185.41L111.54 185.63L111.22 185.85L110.89 186.06L110.56 186.27L110.22 186.48L109.89 186.68L109.54 186.87L109.2 187.07L108.86 187.25L108.51 187.43L108.16 187.61L107.81 187.78L107.47 187.95L107.12 188.11L106.77 188.26L106.43 188.41L106.08 188.55L105.74 188.69L105.4 188.82L105.07 188.94L104.73 189.06L104.4 189.17L104.08 189.27L103.76 189.37L103.44 189.46L103.13 189.54L102.83 189.61L102.53 189.67L102.24 189.73L101.95 189.78L101.68 189.82L101.41 189.85L101.14 189.87L100.89 189.89L100.65 189.89L100.43 189.9L100.19 189.93L99.94 189.97L99.67 190.03L99.39 190.11L99.1 190.21L98.8 190.32L98.48 190.45L98.16 190.6L97.82 190.76L97.47 190.93L97.12 191.12L96.75 191.33L96.38 191.55L96 191.78L95.61 192.03L95.22 192.29L94.82 192.56L94.42 192.85L94.01 193.14L93.59 193.45L93.18 193.77L92.76 194.1L92.33 194.45L91.91 194.8L91.48 195.16L91.06 195.54L90.63 195.92L90.2 196.31L89.78 196.71L89.35 197.12L88.93 197.54L88.51 197.97L88.09 198.4L87.68 198.84L87.27 199.29L86.87 199.74L86.47 200.2L86.08 200.67L85.7 201.14L84.71 202.29L83.77 203.35L82.87 204.34L82.02 205.25L81.2 206.08L80.43 206.83L79.7 207.51L79.01 208.11L78.37 208.64L77.78 209.1L77.22 209.49L76.72 209.8L76.26 210.05L75.84 210.23L75.48 210.34L75.16 210.39L74.89 210.37L74.66 210.29L74.49 210.14L74.36 209.93L74.28 209.67L74.26 209.34L74.28 208.95L74.36 208.51L74.48 208.01L74.66 207.46L74.89 206.85L75.17 206.18L75.51 205.47L75.9 204.7L76.34 203.89L76.84 203.02L77.39 202.11L78 201.15L78.66 200.14L79.38 199.09L80.16 198L80.99 196.86L81.88 195.68L82.83 194.46L83.27 193.89L83.74 193.28L84.23 192.64L84.75 191.96L85.29 191.26L85.85 190.52L86.43 189.75L87.02 188.95L87.64 188.13L88.28 187.28L88.93 186.41L89.59 185.51L90.27 184.59L90.97 183.65L91.67 182.69L92.39 181.71L93.12 180.71L93.86 179.7L94.61 178.67L95.36 177.63L96.12 176.57L96.89 175.51L97.66 174.43L98.43 173.35L99.21 172.25L99.99 171.15L100.77 170.05L101.55 168.94L102.32 167.83L103.1 166.72L103.87 165.61L104.64 164.5L105.4 163.39L106.16 162.28L106.91 161.18L107.65 160.08L108.38 158.99L109.1 157.91L109.81 156.84L110.51 155.78L111.73 154L112.92 152.28L114.08 150.63L115.2 149.05L116.3 147.54L117.37 146.08L118.41 144.69L119.43 143.35L120.44 142.08L121.42 140.86L122.39 139.69L123.34 138.58L124.28 137.51L125.21 136.5L126.14 135.53L127.06 134.61L127.97 133.73L128.88 132.89L129.8 132.1L130.72 131.34L131.64 130.62L132.57 129.94L133.5 129.28L134.45 128.66L135.41 128.07L136.39 127.51L137.38 126.98L138.4 126.47L139.43 125.98L140.49 125.52L141.57 125.07L142.68 124.64L143.83 124.23L145 123.84L146.21 123.45L147.45 123.08L148.73 122.72L150.05 122.36L151.42 122.01L152.83 121.67L153.28 121.56L153.72 121.44L154.16 121.3L154.58 121.15L155.01 120.99L155.42 120.82L155.83 120.64L156.23 120.44L156.63 120.24L157.02 120.02L157.4 119.78L157.78 119.54L158.15 119.28L158.51 119.02L158.87 118.73L159.23 118.44L159.57 118.13L159.92 117.82L160.25 117.49L160.58 117.14L160.91 116.79L161.23 116.42L161.54 116.04L161.85 115.64L162.16 115.24L162.46 114.82L162.75 114.39L163.04 113.94L163.33 113.49L163.61 113.02L163.89 112.53L164.16 112.04L164.43 111.53L164.69 111.01L164.95 110.47L165.21 109.93L165.46 109.36L165.71 108.79L165.95 108.2L166.19 107.6L166.38 107.13L166.58 106.65L166.78 106.18L166.98 105.7L167.18 105.23L167.39 104.75L167.6 104.28L167.81 103.81L168.02 103.35L168.24 102.88L168.45 102.43L168.67 101.97L168.89 101.53L169.1 101.09L169.32 100.65L169.54 100.22L169.76 99.8L169.97 99.39L170.19 98.99L170.41 98.59L170.62 98.21L170.83 97.84L171.04 97.47L171.25 97.12L171.46 96.78L171.66 96.46L171.87 96.14L172.07 95.85L172.26 95.56L172.45 95.29L172.64 95.04L172.83 94.8L173.01 94.58L173.19 94.37L173.36 94.19L173.53 94.02L173.69 93.87L173.85 93.74L174 93.63L174.14 93.54L174.29 93.43L174.43 93.3L174.57 93.16L174.71 93.01L174.84 92.85L174.98 92.68L175.11 92.5L175.24 92.3L175.37 92.1L175.5 91.88L175.62 91.65L175.74 91.42L175.86 91.17L175.98 90.92L176.09 90.66L176.2 90.39L176.31 90.11L176.41 89.82L176.51 89.53L176.61 89.23L176.7 88.92L176.79 88.61L176.88 88.29L176.96 87.97L177.04 87.64L177.11 87.3L177.18 86.96L177.25 86.62L177.31 86.27L177.37 85.92L177.42 85.57L177.46 85.21L177.51 84.85L177.54 84.49L177.57 84.12L177.6 83.76L177.62 83.39L177.63 83.02L177.64 82.65L177.64 82.29L177.64 81.77L177.63 81.27L177.62 80.8L177.59 80.34L177.56 79.9L177.52 79.49L177.48 79.09L177.42 78.71L177.36 78.35L177.29 78.01L177.2 77.68L177.11 77.37L177.01 77.08L176.9 76.8L176.77 76.54L176.64 76.3L176.49 76.07L176.33 75.86L176.16 75.66L175.97 75.47L175.78 75.3L175.57 75.14L175.34 75L175.1 74.87L174.85 74.75L174.58 74.64L174.3 74.54L174 74.46L173.68 74.39L173.35 74.32L173 74.27L172.64 74.23L172.25 74.2L171.85 74.17L171.43 74.16L171 74.15L170.54 74.15L170.06 74.16Z" id="c28mEq3kMf"></path><path d="M266.19 218.82C248.69 231.98 235.96 249.98 221.33 283.22C216.56 293.96 216.87 294.65 222.92 298.11C234.06 304.69 257.6 302.96 271.92 295C292.28 283.92 304.69 257.26 295.14 246.87C290.37 241.67 282.73 245.14 282.73 252.06C282.73 256.22 281.78 256.56 279.24 253.79C276.69 251.02 276.69 247.91 279.55 242.37C284.64 231.98 298.96 234.06 304.37 246.52C307.87 254.83 307.55 258.29 302.46 271.45C291.64 298.11 264.28 313.69 231.19 311.96C230 311.91 224.07 311.68 213.38 311.27C215.09 319.79 216.05 324.52 216.24 325.46C221.97 353.16 241.69 386.4 261.42 401.98C262.31 402.68 266.76 406.14 274.78 412.37C277.07 406.55 278.34 403.32 278.6 402.68C280.83 397.48 287.83 380.52 294.19 365.28C300.55 350.05 308.19 331.35 311.37 323.73C320.28 301.92 352.41 227.48 368 192.85C369.28 190.43 330.46 190.08 319.32 192.85C303.42 196.32 282.73 206.7 266.19 218.82Z" id="asWUajIlV"></path><path d="M289.1 418.26C289.1 419.29 297.37 418.95 307.55 417.91C330.14 415.14 349.23 405.45 367.68 386.75C387.41 367.01 395.68 346.93 395.68 317.85C395.68 297.07 394.73 293.61 386.46 284.26C379.14 275.95 375.96 274.57 371.5 277.34C368 279.07 365.46 282.88 365.46 285.65C365.46 288.42 364.18 290.84 362.28 290.84C356.87 290.84 358.78 280.8 365.46 273.53C368.96 269.72 374.05 266.6 376.59 266.6C384.23 266.6 397.27 284.61 402.05 302.61C412.23 340.01 405.55 367.71 378.5 397.48C355.91 422.06 335.23 431.07 304.05 428.64C283.37 427.26 282.73 427.6 279.24 437.3C275.74 446.3 276.37 448.03 286.23 459.11C302.46 477.46 331.1 491.66 351.46 491.66C384.23 491.66 419.23 470.54 442.77 436.95C466.63 402.68 471.41 389.86 473 354.89C475.22 299.84 461.86 272.49 405.23 218.82C394.73 209.13 385.18 200.82 384.23 200.82C383.27 200.82 373.73 220.55 362.91 244.79C324.41 333.43 289.1 415.83 289.1 418.26Z" id="cJ1j3BIbq"></path><path d="M229.6 480.93C243.92 470.54 259.51 451.49 256.65 448.03C255.69 447.34 245.83 445.61 234.69 444.57C215.6 442.49 213.38 443.19 201.28 452.88C166.92 480.23 193.97 506.55 229.6 480.93Z" id="eAGdGwn5u"></path></defs><g><g><g><use xlink:href="#c28mEq3kMf" opacity="1" fill="#000000" fill-opacity="1"></use><g><use xlink:href="#c28mEq3kMf" opacity="1" fill-opacity="0" stroke="#000000" stroke-width="1" stroke-opacity="0"></use></g></g><g><use xlink:href="#asWUajIlV" opacity="1" fill="#000000" fill-opacity="1"></use><g><use xlink:href="#asWUajIlV" opacity="1" fill-opacity="0" stroke="#000000" stroke-width="1" stroke-opacity="0"></use></g></g><g><use xlink:href="#cJ1j3BIbq" opacity="1" fill="#000000" fill-opacity="1"></use><g><use xlink:href="#cJ1j3BIbq" opacity="1" fill-opacity="0" stroke="#000000" stroke-width="1" stroke-opacity="0"></use></g></g><g><use xlink:href="#eAGdGwn5u" opacity="1" fill="#000000" fill-opacity="1"></use><g><use xlink:href="#eAGdGwn5u" opacity="1" fill-opacity="0" stroke="#000000" stroke-width="1" stroke-opacity="0"></use></g></g></g></g></svg>